M48
;DRILL file {KiCad 4.0.2+dfsg1-stable} date Sat 24 Dec 2016 02:51:17 PM EST
;FORMAT={-:-/ absolute / inch / decimal}
FMAT,2
INCH,TZ
T1C0.026
T2C0.040
T3C0.045
%
G90
G05
M72
T1
X6.5657Y-5.2506
X6.7232Y-4.6601
X6.7232Y-5.2506
X6.8019Y-4.6601
X6.8019Y-5.2506
X6.8806Y-4.6601
X6.8806Y-5.2506
X6.9594Y-4.6601
X6.9594Y-5.2506
X7.0381Y-4.6601
X7.0381Y-5.2506
T2
X4.3965Y-3.616
X4.3965Y-3.716
X4.3965Y-3.816
X4.3965Y-3.916
X4.3965Y-4.016
X4.3965Y-4.116
X4.3965Y-4.216
X4.3965Y-4.316
X4.3965Y-4.416
X4.3965Y-4.516
X4.3965Y-4.616
X4.3965Y-4.716
X4.3965Y-4.816
X4.4965Y-3.616
X4.4965Y-3.716
X4.4965Y-3.816
X4.4965Y-3.916
X4.4965Y-4.016
X4.4965Y-4.116
X4.4965Y-4.216
X4.4965Y-4.316
X4.4965Y-4.416
X4.4965Y-4.516
X4.4965Y-4.616
X4.4965Y-4.716
X4.4965Y-4.816
X4.9825Y-4.8275
X4.9825Y-4.9275
X4.9825Y-5.0275
X4.9825Y-5.1275
X4.9825Y-5.2275
X4.9925Y-3.1275
X4.9925Y-3.2275
X4.9925Y-3.3275
X4.9925Y-3.4275
X4.9925Y-3.6875
X4.9925Y-3.7875
X4.9925Y-4.0275
X4.9925Y-4.1275
X4.9925Y-4.2275
X4.9925Y-4.4375
X4.9925Y-4.5375
X4.9925Y-4.6375
X5.9925Y-4.035
X5.9925Y-4.135
X5.9925Y-4.235
X6.015Y-4.7875
X6.015Y-4.8875
X6.015Y-4.9875
X6.015Y-5.0875
X6.015Y-5.1875
T3
X6.3425Y-4.275
X6.7425Y-4.075
T0
M30
