G04 #@! TF.FileFunction,Copper,L2,Bot,Signal*
%FSLAX46Y46*%
G04 Gerber Fmt 4.6, Leading zero omitted, Abs format (unit mm)*
G04 Created by KiCad (PCBNEW 4.0.2+dfsg1-stable) date Sat 24 Dec 2016 02:51:14 PM EST*
%MOMM*%
G01*
G04 APERTURE LIST*
%ADD10C,0.100000*%
%ADD11R,2.032000X1.727200*%
%ADD12O,2.032000X1.727200*%
%ADD13R,1.727200X1.727200*%
%ADD14O,1.727200X1.727200*%
%ADD15R,0.800100X0.800100*%
%ADD16R,1.300000X1.500000*%
%ADD17C,2.540000*%
%ADD18R,2.032000X2.032000*%
%ADD19O,2.032000X2.032000*%
%ADD20C,1.500000*%
%ADD21C,0.300000*%
%ADD22C,0.254000*%
G04 APERTURE END LIST*
D10*
D11*
X126809500Y-87058500D03*
D12*
X126809500Y-84518500D03*
X126809500Y-81978500D03*
X126809500Y-79438500D03*
D11*
X126809500Y-107378500D03*
D12*
X126809500Y-104838500D03*
X126809500Y-102298500D03*
D13*
X111671100Y-122326400D03*
D14*
X114211100Y-122326400D03*
X111671100Y-119786400D03*
X114211100Y-119786400D03*
X111671100Y-117246400D03*
X114211100Y-117246400D03*
X111671100Y-114706400D03*
X114211100Y-114706400D03*
X111671100Y-112166400D03*
X114211100Y-112166400D03*
X111671100Y-109626400D03*
X114211100Y-109626400D03*
X111671100Y-107086400D03*
X114211100Y-107086400D03*
X111671100Y-104546400D03*
X114211100Y-104546400D03*
X111671100Y-102006400D03*
X114211100Y-102006400D03*
X111671100Y-99466400D03*
X114211100Y-99466400D03*
X111671100Y-96926400D03*
X114211100Y-96926400D03*
X111671100Y-94386400D03*
X114211100Y-94386400D03*
X111671100Y-91846400D03*
X114211100Y-91846400D03*
D11*
X126555500Y-132778500D03*
D12*
X126555500Y-130238500D03*
X126555500Y-127698500D03*
X126555500Y-125158500D03*
X126555500Y-122618500D03*
D11*
X126809500Y-117792500D03*
D12*
X126809500Y-115252500D03*
X126809500Y-112712500D03*
D11*
X152781000Y-121602500D03*
D12*
X152781000Y-124142500D03*
X152781000Y-126682500D03*
X152781000Y-129222500D03*
X152781000Y-131762500D03*
D11*
X152209500Y-102489000D03*
D12*
X152209500Y-105029000D03*
X152209500Y-107569000D03*
D15*
X159336740Y-125981500D03*
X159336740Y-124081500D03*
X161335720Y-125031500D03*
D16*
X156400500Y-123999000D03*
X156400500Y-126699000D03*
X157035500Y-104855000D03*
X157035500Y-102155000D03*
D17*
X171259500Y-103505000D03*
X161099500Y-108585000D03*
D16*
X119888000Y-99648000D03*
X119888000Y-96948000D03*
D18*
X126809500Y-96202500D03*
D19*
X126809500Y-93662500D03*
D20*
X178768500Y-133365500D03*
X176768500Y-133365500D03*
X174768500Y-133365500D03*
X172768500Y-133365500D03*
X170768500Y-133365500D03*
X166768500Y-133365500D03*
X178768500Y-118365500D03*
X176768500Y-118365500D03*
X174768500Y-118365500D03*
X172768500Y-118365500D03*
X170768500Y-118365500D03*
D21*
X114211100Y-122326400D02*
X116166900Y-122326400D01*
X124079000Y-130238500D02*
X126555500Y-130238500D01*
X116166900Y-122326400D02*
X124079000Y-130238500D01*
X126809500Y-96202500D02*
X126809500Y-102298500D01*
X126809500Y-117792500D02*
X126936500Y-117792500D01*
X126936500Y-117792500D02*
X129603500Y-115125500D01*
X129603500Y-115125500D02*
X129603500Y-105092500D01*
X129603500Y-105092500D02*
X126809500Y-102298500D01*
X126809500Y-87058500D02*
X126873000Y-87058500D01*
X126873000Y-87058500D02*
X129540000Y-89725500D01*
X129540000Y-89725500D02*
X129540000Y-93472000D01*
X129540000Y-93472000D02*
X126809500Y-96202500D01*
X126555500Y-132778500D02*
X127762000Y-132778500D01*
X129667000Y-120650000D02*
X126809500Y-117792500D01*
X129667000Y-130873500D02*
X129667000Y-120650000D01*
X127762000Y-132778500D02*
X129667000Y-130873500D01*
X111671100Y-122326400D02*
X111671100Y-123228100D01*
X121221500Y-132778500D02*
X126555500Y-132778500D01*
X111671100Y-123228100D02*
X121221500Y-132778500D01*
X111671100Y-122326400D02*
X111671100Y-122847100D01*
X114211100Y-117246400D02*
X114211100Y-117259100D01*
X114211100Y-117259100D02*
X124650500Y-127698500D01*
X124650500Y-127698500D02*
X126555500Y-127698500D01*
X114211100Y-112166400D02*
X115468400Y-112166400D01*
X115468400Y-112166400D02*
X125920500Y-122618500D01*
X125920500Y-122618500D02*
X126555500Y-122618500D01*
X114211100Y-112166400D02*
X114960400Y-112166400D01*
X111671100Y-109626400D02*
X114211100Y-112166400D01*
X126809500Y-79438500D02*
X124079000Y-79438500D01*
X124079000Y-79438500D02*
X111671100Y-91846400D01*
X114211100Y-109626400D02*
X117881400Y-109626400D01*
X123507500Y-115252500D02*
X126809500Y-115252500D01*
X117881400Y-109626400D02*
X123507500Y-115252500D01*
X114211100Y-109626400D02*
X114655600Y-109626400D01*
X114211100Y-109626400D02*
X114401600Y-109626400D01*
X126809500Y-84518500D02*
X125984000Y-84518500D01*
X125984000Y-84518500D02*
X116116100Y-94386400D01*
X116116100Y-94386400D02*
X114211100Y-94386400D01*
X114211100Y-91846400D02*
X115544600Y-91846400D01*
X125412500Y-81978500D02*
X126809500Y-81978500D01*
X115544600Y-91846400D02*
X125412500Y-81978500D01*
X114211100Y-91846400D02*
X114211100Y-91782900D01*
X156400500Y-126699000D02*
X156400500Y-130683000D01*
X155321000Y-131762500D02*
X152781000Y-131762500D01*
X156400500Y-130683000D02*
X155321000Y-131762500D01*
X159336740Y-125981500D02*
X157118000Y-125981500D01*
X157118000Y-125981500D02*
X156400500Y-126699000D01*
X152781000Y-126682500D02*
X151320500Y-126682500D01*
X151320500Y-126682500D02*
X149987000Y-125349000D01*
X149987000Y-125349000D02*
X149987000Y-119316500D01*
X149987000Y-119316500D02*
X150811000Y-118492500D01*
X150811000Y-118492500D02*
X170705000Y-118492500D01*
X176705000Y-133492500D02*
X176705000Y-128000500D01*
X170705000Y-122000500D02*
X170705000Y-118492500D01*
X176705000Y-128000500D02*
X176339500Y-127635000D01*
X176339500Y-127635000D02*
X170705000Y-122000500D01*
X152781000Y-129222500D02*
X151257000Y-129222500D01*
X151018500Y-133492500D02*
X166705000Y-133492500D01*
X149860000Y-132334000D02*
X151018500Y-133492500D01*
X149860000Y-130619500D02*
X149860000Y-132334000D01*
X151257000Y-129222500D02*
X149860000Y-130619500D01*
X152781000Y-129222500D02*
X151193500Y-129222500D01*
X171052500Y-116840000D02*
X172705000Y-118492500D01*
X149923500Y-116840000D02*
X171052500Y-116840000D01*
X147510500Y-119253000D02*
X149923500Y-116840000D01*
X147510500Y-125539500D02*
X147510500Y-119253000D01*
X151193500Y-129222500D02*
X147510500Y-125539500D01*
X166687500Y-133475000D02*
X166705000Y-133492500D01*
X152209500Y-102489000D02*
X156701500Y-102489000D01*
X156701500Y-102489000D02*
X157035500Y-102155000D01*
X157035500Y-104855000D02*
X169909500Y-104855000D01*
X169909500Y-104855000D02*
X171259500Y-103505000D01*
X152209500Y-105029000D02*
X156861500Y-105029000D01*
X156861500Y-105029000D02*
X157035500Y-104855000D01*
X152209500Y-107569000D02*
X160083500Y-107569000D01*
X160083500Y-107569000D02*
X161099500Y-108585000D01*
X126809500Y-104838500D02*
X119888000Y-104838500D01*
X117055900Y-102006400D02*
X114211100Y-102006400D01*
X119888000Y-104838500D02*
X117055900Y-102006400D01*
X119888000Y-96948000D02*
X119888000Y-95885000D01*
X122110500Y-93662500D02*
X126809500Y-93662500D01*
X119888000Y-95885000D02*
X122110500Y-93662500D01*
X114211100Y-96926400D02*
X119866400Y-96926400D01*
X119866400Y-96926400D02*
X119888000Y-96948000D01*
X114486700Y-97202000D02*
X114211100Y-96926400D01*
X114211100Y-96926400D02*
X114401600Y-96926400D01*
X114211100Y-96926400D02*
X114211100Y-96862900D01*
X126809500Y-107378500D02*
X126809500Y-112712500D01*
X126809500Y-107378500D02*
X127444500Y-107378500D01*
X126809500Y-112712500D02*
X125539500Y-112712500D01*
X125539500Y-112712500D02*
X119913400Y-107086400D01*
X119913400Y-107086400D02*
X114211100Y-107086400D01*
X114211100Y-99466400D02*
X119706400Y-99466400D01*
X119706400Y-99466400D02*
X119888000Y-99648000D01*
X114211100Y-114706400D02*
X114706400Y-114706400D01*
X114706400Y-114706400D02*
X125158500Y-125158500D01*
X125158500Y-125158500D02*
X126555500Y-125158500D01*
X172705000Y-133492500D02*
X172705000Y-129715500D01*
X172705000Y-129715500D02*
X168021000Y-125031500D01*
X168021000Y-125031500D02*
X161335720Y-125031500D01*
X156400500Y-123999000D02*
X159254240Y-123999000D01*
X159254240Y-123999000D02*
X159336740Y-124081500D01*
X152781000Y-121602500D02*
X154004000Y-121602500D01*
X154004000Y-121602500D02*
X156400500Y-123999000D01*
D22*
G36*
X173343500Y-100151000D02*
X142759500Y-100151000D01*
X142759500Y-105029000D01*
X150526155Y-105029000D01*
X150640229Y-104455511D01*
X150965085Y-103969330D01*
X150979413Y-103959757D01*
X150958183Y-103955762D01*
X150742059Y-103816690D01*
X150597069Y-103604490D01*
X150546060Y-103352600D01*
X150546060Y-101625400D01*
X150590338Y-101390083D01*
X150729410Y-101173959D01*
X150941610Y-101028969D01*
X151193500Y-100977960D01*
X153225500Y-100977960D01*
X153460817Y-101022238D01*
X153676941Y-101161310D01*
X153821931Y-101373510D01*
X153872940Y-101625400D01*
X153872940Y-101704000D01*
X155738060Y-101704000D01*
X155738060Y-101405000D01*
X155782338Y-101169683D01*
X155921410Y-100953559D01*
X156133610Y-100808569D01*
X156385500Y-100757560D01*
X157685500Y-100757560D01*
X157920817Y-100801838D01*
X158136941Y-100940910D01*
X158281931Y-101153110D01*
X158332940Y-101405000D01*
X158332940Y-102905000D01*
X158288662Y-103140317D01*
X158149590Y-103356441D01*
X157937390Y-103501431D01*
X157924303Y-103504081D01*
X158136941Y-103640910D01*
X158281931Y-103853110D01*
X158325852Y-104070000D01*
X169431405Y-104070000D01*
X169354832Y-103885590D01*
X169354170Y-103127735D01*
X169643578Y-102427314D01*
X170178995Y-101890961D01*
X170878910Y-101600332D01*
X171636765Y-101599670D01*
X172337186Y-101889078D01*
X172873539Y-102424495D01*
X173164168Y-103124410D01*
X173164830Y-103882265D01*
X172875422Y-104582686D01*
X172340005Y-105119039D01*
X171640090Y-105409668D01*
X170882235Y-105410330D01*
X170586516Y-105288142D01*
X170464579Y-105410079D01*
X170209907Y-105580245D01*
X169909500Y-105640000D01*
X158326354Y-105640000D01*
X158288662Y-105840317D01*
X158149590Y-106056441D01*
X157937390Y-106201431D01*
X157685500Y-106252440D01*
X156385500Y-106252440D01*
X156150183Y-106208162D01*
X155934059Y-106069090D01*
X155789069Y-105856890D01*
X155780384Y-105814000D01*
X153637444Y-105814000D01*
X153453915Y-106088670D01*
X153144431Y-106295461D01*
X153560232Y-106666964D01*
X153814209Y-107194209D01*
X153816858Y-107209974D01*
X153802632Y-107237223D01*
X159931328Y-107237223D01*
X160063020Y-106942343D01*
X160770536Y-106670739D01*
X161528132Y-106690564D01*
X162135980Y-106942343D01*
X162267672Y-107237223D01*
X161099500Y-108405395D01*
X159931328Y-107237223D01*
X153802632Y-107237223D01*
X153695717Y-107442000D01*
X152336500Y-107442000D01*
X152336500Y-107422000D01*
X152082500Y-107422000D01*
X152082500Y-107442000D01*
X150723283Y-107442000D01*
X150602142Y-107209974D01*
X150604791Y-107194209D01*
X150858768Y-106666964D01*
X151274569Y-106295461D01*
X150965085Y-106088670D01*
X150640229Y-105602489D01*
X150526155Y-105029000D01*
X142759500Y-105029000D01*
X142759500Y-107928026D01*
X150602142Y-107928026D01*
X150723283Y-107696000D01*
X152082500Y-107696000D01*
X152082500Y-108909924D01*
X152336500Y-108909924D01*
X152336500Y-107696000D01*
X153695717Y-107696000D01*
X153816858Y-107928026D01*
X153814209Y-107943791D01*
X153560232Y-108471036D01*
X153123820Y-108860954D01*
X152972275Y-108913964D01*
X159185239Y-108913964D01*
X159205064Y-108156368D01*
X159456843Y-107548520D01*
X159751723Y-107416828D01*
X160919895Y-108585000D01*
X161279105Y-108585000D01*
X162447277Y-107416828D01*
X162742157Y-107548520D01*
X163013761Y-108256036D01*
X162993936Y-109013632D01*
X162742157Y-109621480D01*
X162447277Y-109753172D01*
X161279105Y-108585000D01*
X160919895Y-108585000D01*
X159751723Y-109753172D01*
X159456843Y-109621480D01*
X159185239Y-108913964D01*
X152972275Y-108913964D01*
X152571413Y-109054184D01*
X152336500Y-108909924D01*
X152082500Y-108909924D01*
X151847587Y-109054184D01*
X151295180Y-108860954D01*
X150858768Y-108471036D01*
X150604791Y-107943791D01*
X150602142Y-107928026D01*
X142759500Y-107928026D01*
X142759500Y-109932777D01*
X159931328Y-109932777D01*
X161099500Y-108764605D01*
X162267672Y-109932777D01*
X162135980Y-110227657D01*
X161428464Y-110499261D01*
X160670868Y-110479436D01*
X160063020Y-110227657D01*
X159931328Y-109932777D01*
X142759500Y-109932777D01*
X142759500Y-111939000D01*
X173343500Y-111939000D01*
X173343500Y-100151000D01*
X173343500Y-100151000D01*
G37*
X173343500Y-100151000D02*
X142759500Y-100151000D01*
X142759500Y-105029000D01*
X150526155Y-105029000D01*
X150640229Y-104455511D01*
X150965085Y-103969330D01*
X150979413Y-103959757D01*
X150958183Y-103955762D01*
X150742059Y-103816690D01*
X150597069Y-103604490D01*
X150546060Y-103352600D01*
X150546060Y-101625400D01*
X150590338Y-101390083D01*
X150729410Y-101173959D01*
X150941610Y-101028969D01*
X151193500Y-100977960D01*
X153225500Y-100977960D01*
X153460817Y-101022238D01*
X153676941Y-101161310D01*
X153821931Y-101373510D01*
X153872940Y-101625400D01*
X153872940Y-101704000D01*
X155738060Y-101704000D01*
X155738060Y-101405000D01*
X155782338Y-101169683D01*
X155921410Y-100953559D01*
X156133610Y-100808569D01*
X156385500Y-100757560D01*
X157685500Y-100757560D01*
X157920817Y-100801838D01*
X158136941Y-100940910D01*
X158281931Y-101153110D01*
X158332940Y-101405000D01*
X158332940Y-102905000D01*
X158288662Y-103140317D01*
X158149590Y-103356441D01*
X157937390Y-103501431D01*
X157924303Y-103504081D01*
X158136941Y-103640910D01*
X158281931Y-103853110D01*
X158325852Y-104070000D01*
X169431405Y-104070000D01*
X169354832Y-103885590D01*
X169354170Y-103127735D01*
X169643578Y-102427314D01*
X170178995Y-101890961D01*
X170878910Y-101600332D01*
X171636765Y-101599670D01*
X172337186Y-101889078D01*
X172873539Y-102424495D01*
X173164168Y-103124410D01*
X173164830Y-103882265D01*
X172875422Y-104582686D01*
X172340005Y-105119039D01*
X171640090Y-105409668D01*
X170882235Y-105410330D01*
X170586516Y-105288142D01*
X170464579Y-105410079D01*
X170209907Y-105580245D01*
X169909500Y-105640000D01*
X158326354Y-105640000D01*
X158288662Y-105840317D01*
X158149590Y-106056441D01*
X157937390Y-106201431D01*
X157685500Y-106252440D01*
X156385500Y-106252440D01*
X156150183Y-106208162D01*
X155934059Y-106069090D01*
X155789069Y-105856890D01*
X155780384Y-105814000D01*
X153637444Y-105814000D01*
X153453915Y-106088670D01*
X153144431Y-106295461D01*
X153560232Y-106666964D01*
X153814209Y-107194209D01*
X153816858Y-107209974D01*
X153802632Y-107237223D01*
X159931328Y-107237223D01*
X160063020Y-106942343D01*
X160770536Y-106670739D01*
X161528132Y-106690564D01*
X162135980Y-106942343D01*
X162267672Y-107237223D01*
X161099500Y-108405395D01*
X159931328Y-107237223D01*
X153802632Y-107237223D01*
X153695717Y-107442000D01*
X152336500Y-107442000D01*
X152336500Y-107422000D01*
X152082500Y-107422000D01*
X152082500Y-107442000D01*
X150723283Y-107442000D01*
X150602142Y-107209974D01*
X150604791Y-107194209D01*
X150858768Y-106666964D01*
X151274569Y-106295461D01*
X150965085Y-106088670D01*
X150640229Y-105602489D01*
X150526155Y-105029000D01*
X142759500Y-105029000D01*
X142759500Y-107928026D01*
X150602142Y-107928026D01*
X150723283Y-107696000D01*
X152082500Y-107696000D01*
X152082500Y-108909924D01*
X152336500Y-108909924D01*
X152336500Y-107696000D01*
X153695717Y-107696000D01*
X153816858Y-107928026D01*
X153814209Y-107943791D01*
X153560232Y-108471036D01*
X153123820Y-108860954D01*
X152972275Y-108913964D01*
X159185239Y-108913964D01*
X159205064Y-108156368D01*
X159456843Y-107548520D01*
X159751723Y-107416828D01*
X160919895Y-108585000D01*
X161279105Y-108585000D01*
X162447277Y-107416828D01*
X162742157Y-107548520D01*
X163013761Y-108256036D01*
X162993936Y-109013632D01*
X162742157Y-109621480D01*
X162447277Y-109753172D01*
X161279105Y-108585000D01*
X160919895Y-108585000D01*
X159751723Y-109753172D01*
X159456843Y-109621480D01*
X159185239Y-108913964D01*
X152972275Y-108913964D01*
X152571413Y-109054184D01*
X152336500Y-108909924D01*
X152082500Y-108909924D01*
X151847587Y-109054184D01*
X151295180Y-108860954D01*
X150858768Y-108471036D01*
X150604791Y-107943791D01*
X150602142Y-107928026D01*
X142759500Y-107928026D01*
X142759500Y-109932777D01*
X159931328Y-109932777D01*
X161099500Y-108764605D01*
X162267672Y-109932777D01*
X162135980Y-110227657D01*
X161428464Y-110499261D01*
X160670868Y-110479436D01*
X160063020Y-110227657D01*
X159931328Y-109932777D01*
X142759500Y-109932777D01*
X142759500Y-111939000D01*
X173343500Y-111939000D01*
X173343500Y-100151000D01*
G36*
X136475500Y-78154500D02*
X127732722Y-78154500D01*
X128160232Y-78536464D01*
X128414209Y-79063709D01*
X128416858Y-79079474D01*
X128295717Y-79311500D01*
X126936500Y-79311500D01*
X126936500Y-79291500D01*
X126682500Y-79291500D01*
X126682500Y-79311500D01*
X125323283Y-79311500D01*
X125202142Y-79079474D01*
X125204791Y-79063709D01*
X125458768Y-78536464D01*
X125886278Y-78154500D01*
X120239542Y-78154500D01*
X109579987Y-88814055D01*
X109523500Y-88875194D01*
X109523500Y-91487374D01*
X110216142Y-91487374D01*
X110388412Y-91071453D01*
X110782610Y-90639579D01*
X111312073Y-90391432D01*
X111544100Y-90511931D01*
X111544100Y-91719400D01*
X110337283Y-91719400D01*
X110216142Y-91487374D01*
X109523500Y-91487374D01*
X109523500Y-119786400D01*
X109845420Y-119786400D01*
X109981721Y-119101167D01*
X110369875Y-118520255D01*
X110375644Y-118516400D01*
X110369875Y-118512545D01*
X109981721Y-117931633D01*
X109845420Y-117246400D01*
X109981721Y-116561167D01*
X110369875Y-115980255D01*
X110375644Y-115976400D01*
X110369875Y-115972545D01*
X109981721Y-115391633D01*
X109845420Y-114706400D01*
X109981721Y-114021167D01*
X110369875Y-113440255D01*
X110375644Y-113436400D01*
X110369875Y-113432545D01*
X109981721Y-112851633D01*
X109845420Y-112166400D01*
X109981721Y-111481167D01*
X110369875Y-110900255D01*
X110375644Y-110896400D01*
X110369875Y-110892545D01*
X109981721Y-110311633D01*
X109845420Y-109626400D01*
X109981721Y-108941167D01*
X110369875Y-108360255D01*
X110375644Y-108356400D01*
X110369875Y-108352545D01*
X109981721Y-107771633D01*
X109845420Y-107086400D01*
X109981721Y-106401167D01*
X110369875Y-105820255D01*
X110375644Y-105816400D01*
X110369875Y-105812545D01*
X109981721Y-105231633D01*
X109845420Y-104546400D01*
X109981721Y-103861167D01*
X110369875Y-103280255D01*
X110375644Y-103276400D01*
X110369875Y-103272545D01*
X109981721Y-102691633D01*
X109845420Y-102006400D01*
X109981721Y-101321167D01*
X110369875Y-100740255D01*
X110375644Y-100736400D01*
X110369875Y-100732545D01*
X109981721Y-100151633D01*
X109845420Y-99466400D01*
X109981721Y-98781167D01*
X110369875Y-98200255D01*
X110375644Y-98196400D01*
X110369875Y-98192545D01*
X109981721Y-97611633D01*
X109845420Y-96926400D01*
X109981721Y-96241167D01*
X110369875Y-95660255D01*
X110375644Y-95656400D01*
X110369875Y-95652545D01*
X109981721Y-95071633D01*
X109845420Y-94386400D01*
X109981721Y-93701167D01*
X110369875Y-93120255D01*
X110664256Y-92923555D01*
X110388412Y-92621347D01*
X110216142Y-92205426D01*
X110337283Y-91973400D01*
X111544100Y-91973400D01*
X111544100Y-91993400D01*
X111798100Y-91993400D01*
X111798100Y-91973400D01*
X111818100Y-91973400D01*
X111818100Y-91719400D01*
X111798100Y-91719400D01*
X111798100Y-90511931D01*
X112030127Y-90391432D01*
X112559590Y-90639579D01*
X112738942Y-90836073D01*
X112909875Y-90580255D01*
X113490787Y-90192101D01*
X114176020Y-90055800D01*
X114246180Y-90055800D01*
X114931413Y-90192101D01*
X115377635Y-90490257D01*
X124650946Y-81216946D01*
X125000350Y-80983482D01*
X125197996Y-80944168D01*
X125352889Y-80712355D01*
X125651560Y-80512789D01*
X125458768Y-80340536D01*
X125204791Y-79813291D01*
X125202142Y-79797526D01*
X125323283Y-79565500D01*
X126682500Y-79565500D01*
X126682500Y-79585500D01*
X126936500Y-79585500D01*
X126936500Y-79565500D01*
X128295717Y-79565500D01*
X128416858Y-79797526D01*
X128414209Y-79813291D01*
X128160232Y-80340536D01*
X127967440Y-80512789D01*
X128266111Y-80712355D01*
X128654265Y-81293267D01*
X128790566Y-81978500D01*
X128654265Y-82663733D01*
X128266111Y-83244645D01*
X128260342Y-83248500D01*
X128266111Y-83252355D01*
X128654265Y-83833267D01*
X128790566Y-84518500D01*
X128654265Y-85203733D01*
X128456662Y-85499466D01*
X128484533Y-85517401D01*
X128696196Y-85827179D01*
X128770661Y-86194900D01*
X128770661Y-87433053D01*
X130301554Y-88963946D01*
X130535018Y-89313350D01*
X130617000Y-89725500D01*
X130617000Y-93472000D01*
X130535018Y-93884150D01*
X130301554Y-94233554D01*
X128770661Y-95764447D01*
X128770661Y-97218500D01*
X128706022Y-97562026D01*
X128502999Y-97877533D01*
X128193221Y-98089196D01*
X127886500Y-98151308D01*
X127886500Y-100778706D01*
X128266111Y-101032355D01*
X128654265Y-101613267D01*
X128790566Y-102298500D01*
X128714586Y-102680478D01*
X130365054Y-104330946D01*
X130598518Y-104680350D01*
X130680500Y-105092500D01*
X130680500Y-115125500D01*
X130598518Y-115537650D01*
X130365054Y-115887054D01*
X128770661Y-117481447D01*
X128770661Y-118230553D01*
X130428554Y-119888446D01*
X130662018Y-120237850D01*
X130744000Y-120650000D01*
X130744000Y-130873500D01*
X130662018Y-131285650D01*
X130428554Y-131635054D01*
X128523554Y-133540054D01*
X128516661Y-133544660D01*
X128516661Y-133642100D01*
X128452022Y-133985626D01*
X128248999Y-134301133D01*
X127939221Y-134512796D01*
X127571500Y-134587261D01*
X125539500Y-134587261D01*
X125195974Y-134522622D01*
X124880467Y-134319599D01*
X124668804Y-134009821D01*
X124637553Y-133855500D01*
X121221500Y-133855500D01*
X120809350Y-133773518D01*
X120459946Y-133540054D01*
X111055053Y-124135161D01*
X110807500Y-124135161D01*
X110463974Y-124070522D01*
X110148467Y-123867499D01*
X109936804Y-123557721D01*
X109862339Y-123190000D01*
X109862339Y-121462800D01*
X109926978Y-121119274D01*
X110130001Y-120803767D01*
X110180563Y-120769220D01*
X109981721Y-120471633D01*
X109845420Y-119786400D01*
X109523500Y-119786400D01*
X109523500Y-125822958D01*
X110858662Y-127158120D01*
X119321549Y-134824500D01*
X136475500Y-134824500D01*
X136475500Y-78154500D01*
X136475500Y-78154500D01*
G37*
X136475500Y-78154500D02*
X127732722Y-78154500D01*
X128160232Y-78536464D01*
X128414209Y-79063709D01*
X128416858Y-79079474D01*
X128295717Y-79311500D01*
X126936500Y-79311500D01*
X126936500Y-79291500D01*
X126682500Y-79291500D01*
X126682500Y-79311500D01*
X125323283Y-79311500D01*
X125202142Y-79079474D01*
X125204791Y-79063709D01*
X125458768Y-78536464D01*
X125886278Y-78154500D01*
X120239542Y-78154500D01*
X109579987Y-88814055D01*
X109523500Y-88875194D01*
X109523500Y-91487374D01*
X110216142Y-91487374D01*
X110388412Y-91071453D01*
X110782610Y-90639579D01*
X111312073Y-90391432D01*
X111544100Y-90511931D01*
X111544100Y-91719400D01*
X110337283Y-91719400D01*
X110216142Y-91487374D01*
X109523500Y-91487374D01*
X109523500Y-119786400D01*
X109845420Y-119786400D01*
X109981721Y-119101167D01*
X110369875Y-118520255D01*
X110375644Y-118516400D01*
X110369875Y-118512545D01*
X109981721Y-117931633D01*
X109845420Y-117246400D01*
X109981721Y-116561167D01*
X110369875Y-115980255D01*
X110375644Y-115976400D01*
X110369875Y-115972545D01*
X109981721Y-115391633D01*
X109845420Y-114706400D01*
X109981721Y-114021167D01*
X110369875Y-113440255D01*
X110375644Y-113436400D01*
X110369875Y-113432545D01*
X109981721Y-112851633D01*
X109845420Y-112166400D01*
X109981721Y-111481167D01*
X110369875Y-110900255D01*
X110375644Y-110896400D01*
X110369875Y-110892545D01*
X109981721Y-110311633D01*
X109845420Y-109626400D01*
X109981721Y-108941167D01*
X110369875Y-108360255D01*
X110375644Y-108356400D01*
X110369875Y-108352545D01*
X109981721Y-107771633D01*
X109845420Y-107086400D01*
X109981721Y-106401167D01*
X110369875Y-105820255D01*
X110375644Y-105816400D01*
X110369875Y-105812545D01*
X109981721Y-105231633D01*
X109845420Y-104546400D01*
X109981721Y-103861167D01*
X110369875Y-103280255D01*
X110375644Y-103276400D01*
X110369875Y-103272545D01*
X109981721Y-102691633D01*
X109845420Y-102006400D01*
X109981721Y-101321167D01*
X110369875Y-100740255D01*
X110375644Y-100736400D01*
X110369875Y-100732545D01*
X109981721Y-100151633D01*
X109845420Y-99466400D01*
X109981721Y-98781167D01*
X110369875Y-98200255D01*
X110375644Y-98196400D01*
X110369875Y-98192545D01*
X109981721Y-97611633D01*
X109845420Y-96926400D01*
X109981721Y-96241167D01*
X110369875Y-95660255D01*
X110375644Y-95656400D01*
X110369875Y-95652545D01*
X109981721Y-95071633D01*
X109845420Y-94386400D01*
X109981721Y-93701167D01*
X110369875Y-93120255D01*
X110664256Y-92923555D01*
X110388412Y-92621347D01*
X110216142Y-92205426D01*
X110337283Y-91973400D01*
X111544100Y-91973400D01*
X111544100Y-91993400D01*
X111798100Y-91993400D01*
X111798100Y-91973400D01*
X111818100Y-91973400D01*
X111818100Y-91719400D01*
X111798100Y-91719400D01*
X111798100Y-90511931D01*
X112030127Y-90391432D01*
X112559590Y-90639579D01*
X112738942Y-90836073D01*
X112909875Y-90580255D01*
X113490787Y-90192101D01*
X114176020Y-90055800D01*
X114246180Y-90055800D01*
X114931413Y-90192101D01*
X115377635Y-90490257D01*
X124650946Y-81216946D01*
X125000350Y-80983482D01*
X125197996Y-80944168D01*
X125352889Y-80712355D01*
X125651560Y-80512789D01*
X125458768Y-80340536D01*
X125204791Y-79813291D01*
X125202142Y-79797526D01*
X125323283Y-79565500D01*
X126682500Y-79565500D01*
X126682500Y-79585500D01*
X126936500Y-79585500D01*
X126936500Y-79565500D01*
X128295717Y-79565500D01*
X128416858Y-79797526D01*
X128414209Y-79813291D01*
X128160232Y-80340536D01*
X127967440Y-80512789D01*
X128266111Y-80712355D01*
X128654265Y-81293267D01*
X128790566Y-81978500D01*
X128654265Y-82663733D01*
X128266111Y-83244645D01*
X128260342Y-83248500D01*
X128266111Y-83252355D01*
X128654265Y-83833267D01*
X128790566Y-84518500D01*
X128654265Y-85203733D01*
X128456662Y-85499466D01*
X128484533Y-85517401D01*
X128696196Y-85827179D01*
X128770661Y-86194900D01*
X128770661Y-87433053D01*
X130301554Y-88963946D01*
X130535018Y-89313350D01*
X130617000Y-89725500D01*
X130617000Y-93472000D01*
X130535018Y-93884150D01*
X130301554Y-94233554D01*
X128770661Y-95764447D01*
X128770661Y-97218500D01*
X128706022Y-97562026D01*
X128502999Y-97877533D01*
X128193221Y-98089196D01*
X127886500Y-98151308D01*
X127886500Y-100778706D01*
X128266111Y-101032355D01*
X128654265Y-101613267D01*
X128790566Y-102298500D01*
X128714586Y-102680478D01*
X130365054Y-104330946D01*
X130598518Y-104680350D01*
X130680500Y-105092500D01*
X130680500Y-115125500D01*
X130598518Y-115537650D01*
X130365054Y-115887054D01*
X128770661Y-117481447D01*
X128770661Y-118230553D01*
X130428554Y-119888446D01*
X130662018Y-120237850D01*
X130744000Y-120650000D01*
X130744000Y-130873500D01*
X130662018Y-131285650D01*
X130428554Y-131635054D01*
X128523554Y-133540054D01*
X128516661Y-133544660D01*
X128516661Y-133642100D01*
X128452022Y-133985626D01*
X128248999Y-134301133D01*
X127939221Y-134512796D01*
X127571500Y-134587261D01*
X125539500Y-134587261D01*
X125195974Y-134522622D01*
X124880467Y-134319599D01*
X124668804Y-134009821D01*
X124637553Y-133855500D01*
X121221500Y-133855500D01*
X120809350Y-133773518D01*
X120459946Y-133540054D01*
X111055053Y-124135161D01*
X110807500Y-124135161D01*
X110463974Y-124070522D01*
X110148467Y-123867499D01*
X109936804Y-123557721D01*
X109862339Y-123190000D01*
X109862339Y-121462800D01*
X109926978Y-121119274D01*
X110130001Y-120803767D01*
X110180563Y-120769220D01*
X109981721Y-120471633D01*
X109845420Y-119786400D01*
X109523500Y-119786400D01*
X109523500Y-125822958D01*
X110858662Y-127158120D01*
X119321549Y-134824500D01*
X136475500Y-134824500D01*
X136475500Y-78154500D01*
G36*
X162814000Y-134419500D02*
X151018500Y-134419500D01*
X150663752Y-134348936D01*
X150366554Y-134150355D01*
X150363012Y-134147988D01*
X149204512Y-132989488D01*
X149003564Y-132688748D01*
X148933000Y-132334000D01*
X148933000Y-130619500D01*
X149003564Y-130264752D01*
X149162083Y-130027512D01*
X149204512Y-129964012D01*
X149914274Y-129254250D01*
X146855012Y-126194988D01*
X146654064Y-125894248D01*
X146583500Y-125539500D01*
X146583500Y-119253000D01*
X146654064Y-118898252D01*
X146812583Y-118661012D01*
X146855012Y-118597512D01*
X148586024Y-116866500D01*
X142748000Y-116866500D01*
X142748000Y-134720500D01*
X162814000Y-134720500D01*
X162814000Y-134419500D01*
X162814000Y-134419500D01*
G37*
X162814000Y-134419500D02*
X151018500Y-134419500D01*
X150663752Y-134348936D01*
X150366554Y-134150355D01*
X150363012Y-134147988D01*
X149204512Y-132989488D01*
X149003564Y-132688748D01*
X148933000Y-132334000D01*
X148933000Y-130619500D01*
X149003564Y-130264752D01*
X149162083Y-130027512D01*
X149204512Y-129964012D01*
X149914274Y-129254250D01*
X146855012Y-126194988D01*
X146654064Y-125894248D01*
X146583500Y-125539500D01*
X146583500Y-119253000D01*
X146654064Y-118898252D01*
X146812583Y-118661012D01*
X146855012Y-118597512D01*
X148586024Y-116866500D01*
X142748000Y-116866500D01*
X142748000Y-134720500D01*
X162814000Y-134720500D01*
X162814000Y-134419500D01*
G36*
X151433394Y-128062421D02*
X151597902Y-127952500D01*
X151433394Y-127842579D01*
X151271088Y-127599671D01*
X150965753Y-127538937D01*
X150665012Y-127337988D01*
X149331512Y-126004488D01*
X149130564Y-125703748D01*
X149060000Y-125349000D01*
X149060000Y-119316500D01*
X149130564Y-118961752D01*
X149166488Y-118907988D01*
X148437500Y-119636976D01*
X148437500Y-125155524D01*
X151397747Y-128115771D01*
X151433394Y-128062421D01*
X151433394Y-128062421D01*
G37*
X151433394Y-128062421D02*
X151597902Y-127952500D01*
X151433394Y-127842579D01*
X151271088Y-127599671D01*
X150965753Y-127538937D01*
X150665012Y-127337988D01*
X149331512Y-126004488D01*
X149130564Y-125703748D01*
X149060000Y-125349000D01*
X149060000Y-119316500D01*
X149130564Y-118961752D01*
X149166488Y-118907988D01*
X148437500Y-119636976D01*
X148437500Y-125155524D01*
X151397747Y-128115771D01*
X151433394Y-128062421D01*
G36*
X151597902Y-125412500D02*
X151433394Y-125302579D01*
X151077756Y-124770330D01*
X150952873Y-124142500D01*
X151077756Y-123514670D01*
X151342920Y-123117825D01*
X151212607Y-123033971D01*
X151035194Y-122774319D01*
X150972778Y-122466100D01*
X150972778Y-120738900D01*
X151026957Y-120450961D01*
X151197129Y-120186507D01*
X151456781Y-120009094D01*
X151765000Y-119946678D01*
X153797000Y-119946678D01*
X154084939Y-120000857D01*
X154349393Y-120171029D01*
X154526806Y-120430681D01*
X154589222Y-120738900D01*
X154589222Y-120900062D01*
X154659488Y-120947012D01*
X156169254Y-122456778D01*
X157050500Y-122456778D01*
X157338439Y-122510957D01*
X157602893Y-122681129D01*
X157780306Y-122940781D01*
X157806879Y-123072000D01*
X158452325Y-123072000D01*
X158628471Y-122951644D01*
X158936690Y-122889228D01*
X159736790Y-122889228D01*
X160024729Y-122943407D01*
X160289183Y-123113579D01*
X160466596Y-123373231D01*
X160529012Y-123681450D01*
X160529012Y-123968905D01*
X160627451Y-123901644D01*
X160935670Y-123839228D01*
X161735770Y-123839228D01*
X162023709Y-123893407D01*
X162288163Y-124063579D01*
X162316123Y-124104500D01*
X162814000Y-124104500D01*
X162814000Y-119419500D01*
X151194976Y-119419500D01*
X150914000Y-119700476D01*
X150914000Y-124965024D01*
X151456175Y-125507199D01*
X151597902Y-125412500D01*
X151597902Y-125412500D01*
G37*
X151597902Y-125412500D02*
X151433394Y-125302579D01*
X151077756Y-124770330D01*
X150952873Y-124142500D01*
X151077756Y-123514670D01*
X151342920Y-123117825D01*
X151212607Y-123033971D01*
X151035194Y-122774319D01*
X150972778Y-122466100D01*
X150972778Y-120738900D01*
X151026957Y-120450961D01*
X151197129Y-120186507D01*
X151456781Y-120009094D01*
X151765000Y-119946678D01*
X153797000Y-119946678D01*
X154084939Y-120000857D01*
X154349393Y-120171029D01*
X154526806Y-120430681D01*
X154589222Y-120738900D01*
X154589222Y-120900062D01*
X154659488Y-120947012D01*
X156169254Y-122456778D01*
X157050500Y-122456778D01*
X157338439Y-122510957D01*
X157602893Y-122681129D01*
X157780306Y-122940781D01*
X157806879Y-123072000D01*
X158452325Y-123072000D01*
X158628471Y-122951644D01*
X158936690Y-122889228D01*
X159736790Y-122889228D01*
X160024729Y-122943407D01*
X160289183Y-123113579D01*
X160466596Y-123373231D01*
X160529012Y-123681450D01*
X160529012Y-123968905D01*
X160627451Y-123901644D01*
X160935670Y-123839228D01*
X161735770Y-123839228D01*
X162023709Y-123893407D01*
X162288163Y-124063579D01*
X162316123Y-124104500D01*
X162814000Y-124104500D01*
X162814000Y-119419500D01*
X151194976Y-119419500D01*
X150914000Y-119700476D01*
X150914000Y-124965024D01*
X151456175Y-125507199D01*
X151597902Y-125412500D01*
G36*
X155473500Y-130299024D02*
X155473500Y-128189101D01*
X155462561Y-128187043D01*
X155198107Y-128016871D01*
X155020694Y-127757219D01*
X154958278Y-127449000D01*
X154958278Y-125949000D01*
X155012457Y-125661061D01*
X155182629Y-125396607D01*
X155250234Y-125350414D01*
X155198107Y-125316871D01*
X155020694Y-125057219D01*
X154958278Y-124749000D01*
X154958278Y-123867754D01*
X154240689Y-123150165D01*
X154484244Y-123514670D01*
X154609127Y-124142500D01*
X154484244Y-124770330D01*
X154128606Y-125302579D01*
X153964098Y-125412500D01*
X154128606Y-125522421D01*
X154484244Y-126054670D01*
X154609127Y-126682500D01*
X154484244Y-127310330D01*
X154128606Y-127842579D01*
X153964098Y-127952500D01*
X154128606Y-128062421D01*
X154484244Y-128594670D01*
X154609127Y-129222500D01*
X154484244Y-129850330D01*
X154128606Y-130382579D01*
X153964098Y-130492500D01*
X154128606Y-130602421D01*
X154284345Y-130835500D01*
X154937024Y-130835500D01*
X155473500Y-130299024D01*
X155473500Y-130299024D01*
G37*
X155473500Y-130299024D02*
X155473500Y-128189101D01*
X155462561Y-128187043D01*
X155198107Y-128016871D01*
X155020694Y-127757219D01*
X154958278Y-127449000D01*
X154958278Y-125949000D01*
X155012457Y-125661061D01*
X155182629Y-125396607D01*
X155250234Y-125350414D01*
X155198107Y-125316871D01*
X155020694Y-125057219D01*
X154958278Y-124749000D01*
X154958278Y-123867754D01*
X154240689Y-123150165D01*
X154484244Y-123514670D01*
X154609127Y-124142500D01*
X154484244Y-124770330D01*
X154128606Y-125302579D01*
X153964098Y-125412500D01*
X154128606Y-125522421D01*
X154484244Y-126054670D01*
X154609127Y-126682500D01*
X154484244Y-127310330D01*
X154128606Y-127842579D01*
X153964098Y-127952500D01*
X154128606Y-128062421D01*
X154484244Y-128594670D01*
X154609127Y-129222500D01*
X154484244Y-129850330D01*
X154128606Y-130382579D01*
X153964098Y-130492500D01*
X154128606Y-130602421D01*
X154284345Y-130835500D01*
X154937024Y-130835500D01*
X155473500Y-130299024D01*
G36*
X158368819Y-125029057D02*
X158369885Y-125028329D01*
X158299967Y-124926000D01*
X157809417Y-124926000D01*
X157788543Y-125036939D01*
X157777243Y-125054500D01*
X158352447Y-125054500D01*
X158368819Y-125029057D01*
X158368819Y-125029057D01*
G37*
X158368819Y-125029057D02*
X158369885Y-125028329D01*
X158299967Y-124926000D01*
X157809417Y-124926000D01*
X157788543Y-125036939D01*
X157777243Y-125054500D01*
X158352447Y-125054500D01*
X158368819Y-125029057D01*
G36*
X162814000Y-125958500D02*
X162320013Y-125958500D01*
X162303641Y-125983943D01*
X162043989Y-126161356D01*
X161735770Y-126223772D01*
X160935670Y-126223772D01*
X160647731Y-126169593D01*
X160529012Y-126093199D01*
X160529012Y-126381550D01*
X160474833Y-126669489D01*
X160304661Y-126933943D01*
X160045009Y-127111356D01*
X159736790Y-127173772D01*
X158936690Y-127173772D01*
X158648751Y-127119593D01*
X158384297Y-126949421D01*
X158356337Y-126908500D01*
X157842722Y-126908500D01*
X157842722Y-127449000D01*
X157788543Y-127736939D01*
X157618371Y-128001393D01*
X157358719Y-128178806D01*
X157327500Y-128185128D01*
X157327500Y-130683000D01*
X157283130Y-130906064D01*
X157256937Y-131037747D01*
X157055988Y-131338488D01*
X155976488Y-132417988D01*
X155755721Y-132565500D01*
X162814000Y-132565500D01*
X162814000Y-125958500D01*
X162814000Y-125958500D01*
G37*
X162814000Y-125958500D02*
X162320013Y-125958500D01*
X162303641Y-125983943D01*
X162043989Y-126161356D01*
X161735770Y-126223772D01*
X160935670Y-126223772D01*
X160647731Y-126169593D01*
X160529012Y-126093199D01*
X160529012Y-126381550D01*
X160474833Y-126669489D01*
X160304661Y-126933943D01*
X160045009Y-127111356D01*
X159736790Y-127173772D01*
X158936690Y-127173772D01*
X158648751Y-127119593D01*
X158384297Y-126949421D01*
X158356337Y-126908500D01*
X157842722Y-126908500D01*
X157842722Y-127449000D01*
X157788543Y-127736939D01*
X157618371Y-128001393D01*
X157358719Y-128178806D01*
X157327500Y-128185128D01*
X157327500Y-130683000D01*
X157283130Y-130906064D01*
X157256937Y-131037747D01*
X157055988Y-131338488D01*
X155976488Y-132417988D01*
X155755721Y-132565500D01*
X162814000Y-132565500D01*
X162814000Y-125958500D01*
G36*
X150952873Y-131762500D02*
X151077756Y-131134670D01*
X151433394Y-130602421D01*
X151597902Y-130492500D01*
X151433394Y-130382579D01*
X151423181Y-130367295D01*
X150787000Y-131003476D01*
X150787000Y-131950024D01*
X151040622Y-132203646D01*
X150952873Y-131762500D01*
X150952873Y-131762500D01*
G37*
X150952873Y-131762500D02*
X151077756Y-131134670D01*
X151433394Y-130602421D01*
X151597902Y-130492500D01*
X151433394Y-130382579D01*
X151423181Y-130367295D01*
X150787000Y-131003476D01*
X150787000Y-131950024D01*
X151040622Y-132203646D01*
X150952873Y-131762500D01*
M02*
