G04 #@! TF.FileFunction,Profile,NP*
%FSLAX46Y46*%
G04 Gerber Fmt 4.6, Leading zero omitted, Abs format (unit mm)*
G04 Created by KiCad (PCBNEW 4.0.2+dfsg1-stable) date Sat 24 Dec 2016 02:51:14 PM EST*
%MOMM*%
G01*
G04 APERTURE LIST*
%ADD10C,0.100000*%
%ADD11C,0.150000*%
G04 APERTURE END LIST*
D10*
D11*
X119888000Y-135826500D02*
X119951500Y-135826500D01*
X119824500Y-135826500D02*
X119888000Y-135826500D01*
X118110000Y-135826500D02*
X119824500Y-135826500D01*
X118046500Y-135763000D02*
X118110000Y-135826500D01*
X108521500Y-126238000D02*
X118046500Y-135763000D01*
X108521500Y-88455500D02*
X108521500Y-126238000D01*
X119824500Y-77152500D02*
X108521500Y-88455500D01*
X119951500Y-77152500D02*
X119824500Y-77152500D01*
X137477500Y-77152500D02*
X119951500Y-77152500D01*
X137477500Y-135826500D02*
X137477500Y-77152500D01*
X137414000Y-135826500D02*
X137477500Y-135826500D01*
X137223500Y-135826500D02*
X137414000Y-135826500D01*
X119888000Y-135826500D02*
X137223500Y-135826500D01*
X142049500Y-112649000D02*
X142303500Y-112649000D01*
X142049500Y-99441000D02*
X142049500Y-112649000D01*
X174053500Y-99441000D02*
X142049500Y-99441000D01*
X174053500Y-99695000D02*
X174053500Y-99441000D01*
X174053500Y-112649000D02*
X174053500Y-99695000D01*
X142049500Y-112649000D02*
X174053500Y-112649000D01*
X141859000Y-116014500D02*
X141859000Y-135572500D01*
X182499000Y-116014500D02*
X141859000Y-116014500D01*
X182499000Y-135572500D02*
X182499000Y-116014500D01*
X141859000Y-135572500D02*
X182499000Y-135572500D01*
M02*
