G04 #@! TF.FileFunction,Copper,L1,Top,Signal*
%FSLAX46Y46*%
G04 Gerber Fmt 4.6, Leading zero omitted, Abs format (unit mm)*
G04 Created by KiCad (PCBNEW 4.0.2+dfsg1-stable) date Sat 24 Dec 2016 02:51:14 PM EST*
%MOMM*%
G01*
G04 APERTURE LIST*
%ADD10C,0.100000*%
%ADD11R,2.032000X1.727200*%
%ADD12O,2.032000X1.727200*%
%ADD13R,1.727200X1.727200*%
%ADD14O,1.727200X1.727200*%
%ADD15C,2.540000*%
%ADD16R,2.032000X2.032000*%
%ADD17O,2.032000X2.032000*%
%ADD18C,1.500000*%
G04 APERTURE END LIST*
D10*
D11*
X126809500Y-87058500D03*
D12*
X126809500Y-84518500D03*
X126809500Y-81978500D03*
X126809500Y-79438500D03*
D11*
X126809500Y-107378500D03*
D12*
X126809500Y-104838500D03*
X126809500Y-102298500D03*
D13*
X111671100Y-122326400D03*
D14*
X114211100Y-122326400D03*
X111671100Y-119786400D03*
X114211100Y-119786400D03*
X111671100Y-117246400D03*
X114211100Y-117246400D03*
X111671100Y-114706400D03*
X114211100Y-114706400D03*
X111671100Y-112166400D03*
X114211100Y-112166400D03*
X111671100Y-109626400D03*
X114211100Y-109626400D03*
X111671100Y-107086400D03*
X114211100Y-107086400D03*
X111671100Y-104546400D03*
X114211100Y-104546400D03*
X111671100Y-102006400D03*
X114211100Y-102006400D03*
X111671100Y-99466400D03*
X114211100Y-99466400D03*
X111671100Y-96926400D03*
X114211100Y-96926400D03*
X111671100Y-94386400D03*
X114211100Y-94386400D03*
X111671100Y-91846400D03*
X114211100Y-91846400D03*
D11*
X126555500Y-132778500D03*
D12*
X126555500Y-130238500D03*
X126555500Y-127698500D03*
X126555500Y-125158500D03*
X126555500Y-122618500D03*
D11*
X126809500Y-117792500D03*
D12*
X126809500Y-115252500D03*
X126809500Y-112712500D03*
D11*
X152781000Y-121602500D03*
D12*
X152781000Y-124142500D03*
X152781000Y-126682500D03*
X152781000Y-129222500D03*
X152781000Y-131762500D03*
D11*
X152209500Y-102489000D03*
D12*
X152209500Y-105029000D03*
X152209500Y-107569000D03*
D15*
X171259500Y-103505000D03*
X161099500Y-108585000D03*
D16*
X126809500Y-96202500D03*
D17*
X126809500Y-93662500D03*
D18*
X178768500Y-133365500D03*
X176768500Y-133365500D03*
X174768500Y-133365500D03*
X172768500Y-133365500D03*
X170768500Y-133365500D03*
X166768500Y-133365500D03*
X178768500Y-118365500D03*
X176768500Y-118365500D03*
X174768500Y-118365500D03*
X172768500Y-118365500D03*
X170768500Y-118365500D03*
M02*
