G04 #@! TF.FileFunction,Copper,L2,Bot,Signal*
%FSLAX46Y46*%
G04 Gerber Fmt 4.6, Leading zero omitted, Abs format (unit mm)*
G04 Created by KiCad (PCBNEW 4.0.2+dfsg1-stable) date Fri 11 Nov 2016 01:01:40 AM EST*
%MOMM*%
G01*
G04 APERTURE LIST*
%ADD10C,0.100000*%
%ADD11R,2.032000X1.727200*%
%ADD12O,2.032000X1.727200*%
%ADD13R,1.727200X1.727200*%
%ADD14O,1.727200X1.727200*%
%ADD15C,2.540000*%
%ADD16C,1.130000*%
%ADD17R,2.032000X2.032000*%
%ADD18O,2.032000X2.032000*%
G04 APERTURE END LIST*
D10*
D11*
X126809500Y-128841500D03*
D12*
X126809500Y-131381500D03*
X126809500Y-133921500D03*
X126809500Y-136461500D03*
D11*
X126809500Y-108521500D03*
D12*
X126809500Y-111061500D03*
X126809500Y-113601500D03*
D13*
X111671100Y-93573600D03*
D14*
X114211100Y-93573600D03*
X111671100Y-96113600D03*
X114211100Y-96113600D03*
X111671100Y-98653600D03*
X114211100Y-98653600D03*
X111671100Y-101193600D03*
X114211100Y-101193600D03*
X111671100Y-103733600D03*
X114211100Y-103733600D03*
X111671100Y-106273600D03*
X114211100Y-106273600D03*
X111671100Y-108813600D03*
X114211100Y-108813600D03*
X111671100Y-111353600D03*
X114211100Y-111353600D03*
X111671100Y-113893600D03*
X114211100Y-113893600D03*
X111671100Y-116433600D03*
X114211100Y-116433600D03*
X111671100Y-118973600D03*
X114211100Y-118973600D03*
X111671100Y-121513600D03*
X114211100Y-121513600D03*
X111671100Y-124053600D03*
X114211100Y-124053600D03*
D11*
X126555500Y-83121500D03*
D12*
X126555500Y-85661500D03*
X126555500Y-88201500D03*
X126555500Y-90741500D03*
X126555500Y-93281500D03*
D11*
X126809500Y-98107500D03*
D12*
X126809500Y-100647500D03*
X126809500Y-103187500D03*
D11*
X152590500Y-93408500D03*
D12*
X152590500Y-90868500D03*
X152590500Y-88328500D03*
X152590500Y-85788500D03*
X152590500Y-83248500D03*
D11*
X152209500Y-113411000D03*
D12*
X152209500Y-110871000D03*
X152209500Y-108331000D03*
D15*
X171259500Y-112395000D03*
X161099500Y-107315000D03*
D16*
X178514500Y-81518500D03*
X176514500Y-81518500D03*
X174514500Y-81518500D03*
X172514500Y-81518500D03*
X170514500Y-81518500D03*
X166514500Y-81518500D03*
X178514500Y-96518500D03*
X176514500Y-96518500D03*
X174514500Y-96518500D03*
X172514500Y-96518500D03*
X170514500Y-96518500D03*
D17*
X126809500Y-119697500D03*
D18*
X126809500Y-122237500D03*
M02*
