M48
;DRILL file {KiCad 4.0.2+dfsg1-stable} date Sat 29 Oct 2016 12:38:51 PM EDT
;FORMAT={-:-/ absolute / inch / decimal}
FMAT,2
INCH,TZ
T1C0.026
T2C0.040
T3C0.045
%
G90
G05
M72
T1
X6.1582Y-3.6819
X6.3157Y-3.6819
X6.3157Y-4.2724
X6.3944Y-3.6819
X6.3944Y-4.2724
X6.4731Y-3.6819
X6.4731Y-4.2724
X6.5519Y-3.6819
X6.5519Y-4.2724
X6.6306Y-3.6819
X6.6306Y-4.2724
T2
X4.3965Y-3.684
X4.3965Y-3.784
X4.3965Y-3.884
X4.3965Y-3.984
X4.3965Y-4.084
X4.3965Y-4.184
X4.3965Y-4.284
X4.3965Y-4.384
X4.3965Y-4.484
X4.3965Y-4.584
X4.3965Y-4.684
X4.3965Y-4.784
X4.3965Y-4.884
X4.4965Y-3.684
X4.4965Y-3.784
X4.4965Y-3.884
X4.4965Y-3.984
X4.4965Y-4.084
X4.4965Y-4.184
X4.4965Y-4.284
X4.4965Y-4.384
X4.4965Y-4.484
X4.4965Y-4.584
X4.4965Y-4.684
X4.4965Y-4.784
X4.4965Y-4.884
X4.7Y-3.68
X4.7Y-3.78
X4.7Y-3.88
X4.7Y-3.98
X4.7Y-4.08
X4.7Y-4.23
X4.7Y-4.33
X4.7Y-4.43
X4.7Y-4.58
X4.7Y-4.68
X4.7Y-4.78
X4.7Y-4.88
X5.58Y-4.64
X5.58Y-4.74
X5.58Y-4.84
X5.7Y-3.75
X5.7Y-3.85
X5.7Y-3.95
X5.7Y-4.05
X5.7Y-4.15
T3
X5.93Y-4.6
X6.33Y-4.8
T0
M30
