G04 #@! TF.FileFunction,Copper,L1,Top,Signal*
%FSLAX46Y46*%
G04 Gerber Fmt 4.6, Leading zero omitted, Abs format (unit mm)*
G04 Created by KiCad (PCBNEW 4.0.2+dfsg1-stable) date Sat 29 Oct 2016 12:35:33 PM EDT*
%MOMM*%
G01*
G04 APERTURE LIST*
%ADD10C,0.100000*%
%ADD11R,1.727200X1.727200*%
%ADD12O,1.727200X1.727200*%
%ADD13R,2.032000X1.727200*%
%ADD14O,2.032000X1.727200*%
%ADD15R,0.800100X0.800100*%
%ADD16R,1.300000X1.500000*%
%ADD17C,2.540000*%
%ADD18C,1.130000*%
%ADD19C,0.300000*%
%ADD20C,0.254000*%
G04 APERTURE END LIST*
D10*
D11*
X111671100Y-93573600D03*
D12*
X114211100Y-93573600D03*
X111671100Y-96113600D03*
X114211100Y-96113600D03*
X111671100Y-98653600D03*
X114211100Y-98653600D03*
X111671100Y-101193600D03*
X114211100Y-101193600D03*
X111671100Y-103733600D03*
X114211100Y-103733600D03*
X111671100Y-106273600D03*
X114211100Y-106273600D03*
X111671100Y-108813600D03*
X114211100Y-108813600D03*
X111671100Y-111353600D03*
X114211100Y-111353600D03*
X111671100Y-113893600D03*
X114211100Y-113893600D03*
X111671100Y-116433600D03*
X114211100Y-116433600D03*
X111671100Y-118973600D03*
X114211100Y-118973600D03*
X111671100Y-121513600D03*
X114211100Y-121513600D03*
X111671100Y-124053600D03*
X114211100Y-124053600D03*
D13*
X119380000Y-93472000D03*
D14*
X119380000Y-96012000D03*
X119380000Y-98552000D03*
X119380000Y-101092000D03*
X119380000Y-103632000D03*
D13*
X119380000Y-107442000D03*
D14*
X119380000Y-109982000D03*
X119380000Y-112522000D03*
D13*
X119380000Y-116332000D03*
D14*
X119380000Y-118872000D03*
X119380000Y-121412000D03*
X119380000Y-123952000D03*
D13*
X144780000Y-105410000D03*
D14*
X144780000Y-102870000D03*
X144780000Y-100330000D03*
X144780000Y-97790000D03*
X144780000Y-95250000D03*
D13*
X141732000Y-122936000D03*
D14*
X141732000Y-120396000D03*
X141732000Y-117856000D03*
D15*
X149286000Y-101615240D03*
X147386000Y-101615240D03*
X148336000Y-103614220D03*
D16*
X147066000Y-97870000D03*
X147066000Y-95170000D03*
X146558000Y-120570000D03*
X146558000Y-123270000D03*
D17*
X160782000Y-121920000D03*
X150622000Y-116840000D03*
D18*
X168418000Y-93520000D03*
X166418000Y-93520000D03*
X164418000Y-93520000D03*
X162418000Y-93520000D03*
X160418000Y-93520000D03*
X156418000Y-93520000D03*
X168418000Y-108520000D03*
X166418000Y-108520000D03*
X164418000Y-108520000D03*
X162418000Y-108520000D03*
X160418000Y-108520000D03*
D19*
X114211100Y-93573600D02*
X116941600Y-93573600D01*
X116941600Y-93573600D02*
X119380000Y-96012000D01*
X119380000Y-107442000D02*
X120396000Y-107442000D01*
X120396000Y-107442000D02*
X121920000Y-108966000D01*
X121920000Y-114808000D02*
X120396000Y-116332000D01*
X121920000Y-108966000D02*
X121920000Y-114808000D01*
X120396000Y-116332000D02*
X119380000Y-116332000D01*
X119380000Y-93472000D02*
X119888000Y-93472000D01*
X119888000Y-93472000D02*
X121920000Y-95504000D01*
X121920000Y-104902000D02*
X119380000Y-107442000D01*
X121920000Y-95504000D02*
X121920000Y-104902000D01*
X111671100Y-93573600D02*
X111671100Y-93052900D01*
X111671100Y-93052900D02*
X112776000Y-91948000D01*
X112776000Y-91948000D02*
X117856000Y-91948000D01*
X117856000Y-91948000D02*
X119380000Y-93472000D01*
X119380000Y-107442000D02*
X119380000Y-107188000D01*
X118973600Y-93065600D02*
X119380000Y-93472000D01*
X114211100Y-101193600D02*
X116738400Y-101193600D01*
X116738400Y-101193600D02*
X119380000Y-98552000D01*
X114211100Y-103733600D02*
X116738400Y-103733600D01*
X116738400Y-103733600D02*
X119380000Y-101092000D01*
X111671100Y-106273600D02*
X114211100Y-103733600D01*
X114211100Y-111353600D02*
X116230400Y-111353600D01*
X117602000Y-109982000D02*
X119380000Y-109982000D01*
X116230400Y-111353600D02*
X117602000Y-109982000D01*
X114211100Y-121513600D02*
X116738400Y-121513600D01*
X116738400Y-121513600D02*
X119380000Y-118872000D01*
X114211100Y-124053600D02*
X116738400Y-124053600D01*
X116738400Y-124053600D02*
X119380000Y-121412000D01*
X141732000Y-105410000D02*
X146540220Y-105410000D01*
X146540220Y-105410000D02*
X148336000Y-103614220D01*
X141732000Y-97790000D02*
X146356000Y-97790000D01*
X146356000Y-97790000D02*
X147386000Y-98820000D01*
X147386000Y-101615240D02*
X147386000Y-98820000D01*
X141732000Y-95250000D02*
X146986000Y-95250000D01*
X146986000Y-95250000D02*
X155956000Y-95250000D01*
X155956000Y-95250000D02*
X157226000Y-95250000D01*
X157226000Y-95250000D02*
X158750000Y-93726000D01*
X158750000Y-93726000D02*
X158750000Y-92964000D01*
X158750000Y-92964000D02*
X159512000Y-92202000D01*
X159512000Y-92202000D02*
X165100000Y-92202000D01*
X165100000Y-92202000D02*
X166418000Y-93520000D01*
X160418000Y-108520000D02*
X160418000Y-109618000D01*
X166418000Y-102664000D02*
X166418000Y-93520000D01*
X170180000Y-106426000D02*
X166418000Y-102664000D01*
X170180000Y-109220000D02*
X170180000Y-106426000D01*
X169164000Y-110236000D02*
X170180000Y-109220000D01*
X161036000Y-110236000D02*
X169164000Y-110236000D01*
X160418000Y-109618000D02*
X161036000Y-110236000D01*
X141732000Y-122936000D02*
X146224000Y-122936000D01*
X146224000Y-122936000D02*
X146558000Y-123270000D01*
X146558000Y-120570000D02*
X159432000Y-120570000D01*
X159432000Y-120570000D02*
X160782000Y-121920000D01*
X141732000Y-120396000D02*
X146384000Y-120396000D01*
X146384000Y-120396000D02*
X146558000Y-120570000D01*
X141732000Y-117856000D02*
X149606000Y-117856000D01*
X149606000Y-117856000D02*
X150622000Y-116840000D01*
X162418000Y-93520000D02*
X162418000Y-94884000D01*
X155686760Y-101615240D02*
X149286000Y-101615240D01*
X162418000Y-94884000D02*
X155686760Y-101615240D01*
X141732000Y-102870000D02*
X140208000Y-102870000D01*
X162418000Y-107554000D02*
X162418000Y-108520000D01*
X161290000Y-106426000D02*
X162418000Y-107554000D01*
X158242000Y-106426000D02*
X161290000Y-106426000D01*
X156972000Y-107696000D02*
X158242000Y-106426000D01*
X139192000Y-107696000D02*
X156972000Y-107696000D01*
X139192000Y-103886000D02*
X139192000Y-107696000D01*
X140208000Y-102870000D02*
X139192000Y-103886000D01*
X141732000Y-102870000D02*
X140970000Y-102870000D01*
X140970000Y-102870000D02*
X139446000Y-101346000D01*
X139906000Y-93520000D02*
X156418000Y-93520000D01*
X139446000Y-93980000D02*
X139906000Y-93520000D01*
X139446000Y-101346000D02*
X139446000Y-93980000D01*
D20*
G36*
X129338000Y-125274000D02*
X120208424Y-125274000D01*
X120294320Y-125243954D01*
X120730732Y-124854036D01*
X120984709Y-124326791D01*
X120987358Y-124311026D01*
X120866217Y-124079000D01*
X119507000Y-124079000D01*
X119507000Y-124099000D01*
X119253000Y-124099000D01*
X119253000Y-124079000D01*
X119233000Y-124079000D01*
X119233000Y-123825000D01*
X119253000Y-123825000D01*
X119253000Y-123805000D01*
X119507000Y-123805000D01*
X119507000Y-123825000D01*
X120866217Y-123825000D01*
X120987358Y-123592974D01*
X120984709Y-123577209D01*
X120730732Y-123049964D01*
X120314931Y-122678461D01*
X120624415Y-122471670D01*
X120949271Y-121985489D01*
X121063345Y-121412000D01*
X120949271Y-120838511D01*
X120624415Y-120352330D01*
X120309634Y-120142000D01*
X120624415Y-119931670D01*
X120949271Y-119445489D01*
X121063345Y-118872000D01*
X120949271Y-118298511D01*
X120624415Y-117812330D01*
X120610087Y-117802757D01*
X120631317Y-117798762D01*
X120847441Y-117659690D01*
X120992431Y-117447490D01*
X121043440Y-117195600D01*
X121043440Y-116794718D01*
X122475076Y-115363081D01*
X122475079Y-115363079D01*
X122645245Y-115108406D01*
X122705000Y-114808000D01*
X122705000Y-108966000D01*
X122645245Y-108665594D01*
X122475079Y-108410921D01*
X122475076Y-108410919D01*
X121043440Y-106979282D01*
X121043440Y-106888718D01*
X122475079Y-105457079D01*
X122645244Y-105202407D01*
X122645245Y-105202406D01*
X122705000Y-104902000D01*
X122705000Y-95504000D01*
X122645245Y-95203594D01*
X122645245Y-95203593D01*
X122475079Y-94948921D01*
X121043440Y-93517282D01*
X121043440Y-92608400D01*
X120999162Y-92373083D01*
X120860090Y-92156959D01*
X120849905Y-92150000D01*
X129338000Y-92150000D01*
X129338000Y-125274000D01*
X129338000Y-125274000D01*
G37*
X129338000Y-125274000D02*
X120208424Y-125274000D01*
X120294320Y-125243954D01*
X120730732Y-124854036D01*
X120984709Y-124326791D01*
X120987358Y-124311026D01*
X120866217Y-124079000D01*
X119507000Y-124079000D01*
X119507000Y-124099000D01*
X119253000Y-124099000D01*
X119253000Y-124079000D01*
X119233000Y-124079000D01*
X119233000Y-123825000D01*
X119253000Y-123825000D01*
X119253000Y-123805000D01*
X119507000Y-123805000D01*
X119507000Y-123825000D01*
X120866217Y-123825000D01*
X120987358Y-123592974D01*
X120984709Y-123577209D01*
X120730732Y-123049964D01*
X120314931Y-122678461D01*
X120624415Y-122471670D01*
X120949271Y-121985489D01*
X121063345Y-121412000D01*
X120949271Y-120838511D01*
X120624415Y-120352330D01*
X120309634Y-120142000D01*
X120624415Y-119931670D01*
X120949271Y-119445489D01*
X121063345Y-118872000D01*
X120949271Y-118298511D01*
X120624415Y-117812330D01*
X120610087Y-117802757D01*
X120631317Y-117798762D01*
X120847441Y-117659690D01*
X120992431Y-117447490D01*
X121043440Y-117195600D01*
X121043440Y-116794718D01*
X122475076Y-115363081D01*
X122475079Y-115363079D01*
X122645245Y-115108406D01*
X122705000Y-114808000D01*
X122705000Y-108966000D01*
X122645245Y-108665594D01*
X122475079Y-108410921D01*
X122475076Y-108410919D01*
X121043440Y-106979282D01*
X121043440Y-106888718D01*
X122475079Y-105457079D01*
X122645244Y-105202407D01*
X122645245Y-105202406D01*
X122705000Y-104902000D01*
X122705000Y-95504000D01*
X122645245Y-95203594D01*
X122645245Y-95203593D01*
X122475079Y-94948921D01*
X121043440Y-93517282D01*
X121043440Y-92608400D01*
X120999162Y-92373083D01*
X120860090Y-92156959D01*
X120849905Y-92150000D01*
X129338000Y-92150000D01*
X129338000Y-125274000D01*
G36*
X121135000Y-109291157D02*
X121135000Y-114482843D01*
X120706100Y-114911742D01*
X120647890Y-114871969D01*
X120396000Y-114820960D01*
X118364000Y-114820960D01*
X118128683Y-114865238D01*
X117912559Y-115004310D01*
X117767569Y-115216510D01*
X117716560Y-115468400D01*
X117716560Y-117195600D01*
X117760838Y-117430917D01*
X117899910Y-117647041D01*
X118112110Y-117792031D01*
X118153439Y-117800400D01*
X118135585Y-117812330D01*
X117810729Y-118298511D01*
X117696655Y-118872000D01*
X117791753Y-119350089D01*
X116413242Y-120728600D01*
X115483658Y-120728600D01*
X115300129Y-120453930D01*
X114985348Y-120243600D01*
X115300129Y-120033270D01*
X115624985Y-119547089D01*
X115739059Y-118973600D01*
X115624985Y-118400111D01*
X115300129Y-117913930D01*
X114985348Y-117703600D01*
X115300129Y-117493270D01*
X115624985Y-117007089D01*
X115739059Y-116433600D01*
X115624985Y-115860111D01*
X115300129Y-115373930D01*
X114985348Y-115163600D01*
X115300129Y-114953270D01*
X115624985Y-114467089D01*
X115739059Y-113893600D01*
X115624985Y-113320111D01*
X115331598Y-112881026D01*
X117772642Y-112881026D01*
X117775291Y-112896791D01*
X118029268Y-113424036D01*
X118465680Y-113813954D01*
X119018087Y-114007184D01*
X119253000Y-113862924D01*
X119253000Y-112649000D01*
X119507000Y-112649000D01*
X119507000Y-113862924D01*
X119741913Y-114007184D01*
X120294320Y-113813954D01*
X120730732Y-113424036D01*
X120984709Y-112896791D01*
X120987358Y-112881026D01*
X120866217Y-112649000D01*
X119507000Y-112649000D01*
X119253000Y-112649000D01*
X117893783Y-112649000D01*
X117772642Y-112881026D01*
X115331598Y-112881026D01*
X115300129Y-112833930D01*
X114985348Y-112623600D01*
X115300129Y-112413270D01*
X115483658Y-112138600D01*
X116230400Y-112138600D01*
X116530807Y-112078845D01*
X116785479Y-111908679D01*
X117927158Y-110767000D01*
X117952056Y-110767000D01*
X118135585Y-111041670D01*
X118445069Y-111248461D01*
X118029268Y-111619964D01*
X117775291Y-112147209D01*
X117772642Y-112162974D01*
X117893783Y-112395000D01*
X119253000Y-112395000D01*
X119253000Y-112375000D01*
X119507000Y-112375000D01*
X119507000Y-112395000D01*
X120866217Y-112395000D01*
X120987358Y-112162974D01*
X120984709Y-112147209D01*
X120730732Y-111619964D01*
X120314931Y-111248461D01*
X120624415Y-111041670D01*
X120949271Y-110555489D01*
X121063345Y-109982000D01*
X120949271Y-109408511D01*
X120624415Y-108922330D01*
X120610087Y-108912757D01*
X120631317Y-108908762D01*
X120705116Y-108861274D01*
X121135000Y-109291157D01*
X121135000Y-109291157D01*
G37*
X121135000Y-109291157D02*
X121135000Y-114482843D01*
X120706100Y-114911742D01*
X120647890Y-114871969D01*
X120396000Y-114820960D01*
X118364000Y-114820960D01*
X118128683Y-114865238D01*
X117912559Y-115004310D01*
X117767569Y-115216510D01*
X117716560Y-115468400D01*
X117716560Y-117195600D01*
X117760838Y-117430917D01*
X117899910Y-117647041D01*
X118112110Y-117792031D01*
X118153439Y-117800400D01*
X118135585Y-117812330D01*
X117810729Y-118298511D01*
X117696655Y-118872000D01*
X117791753Y-119350089D01*
X116413242Y-120728600D01*
X115483658Y-120728600D01*
X115300129Y-120453930D01*
X114985348Y-120243600D01*
X115300129Y-120033270D01*
X115624985Y-119547089D01*
X115739059Y-118973600D01*
X115624985Y-118400111D01*
X115300129Y-117913930D01*
X114985348Y-117703600D01*
X115300129Y-117493270D01*
X115624985Y-117007089D01*
X115739059Y-116433600D01*
X115624985Y-115860111D01*
X115300129Y-115373930D01*
X114985348Y-115163600D01*
X115300129Y-114953270D01*
X115624985Y-114467089D01*
X115739059Y-113893600D01*
X115624985Y-113320111D01*
X115331598Y-112881026D01*
X117772642Y-112881026D01*
X117775291Y-112896791D01*
X118029268Y-113424036D01*
X118465680Y-113813954D01*
X119018087Y-114007184D01*
X119253000Y-113862924D01*
X119253000Y-112649000D01*
X119507000Y-112649000D01*
X119507000Y-113862924D01*
X119741913Y-114007184D01*
X120294320Y-113813954D01*
X120730732Y-113424036D01*
X120984709Y-112896791D01*
X120987358Y-112881026D01*
X120866217Y-112649000D01*
X119507000Y-112649000D01*
X119253000Y-112649000D01*
X117893783Y-112649000D01*
X117772642Y-112881026D01*
X115331598Y-112881026D01*
X115300129Y-112833930D01*
X114985348Y-112623600D01*
X115300129Y-112413270D01*
X115483658Y-112138600D01*
X116230400Y-112138600D01*
X116530807Y-112078845D01*
X116785479Y-111908679D01*
X117927158Y-110767000D01*
X117952056Y-110767000D01*
X118135585Y-111041670D01*
X118445069Y-111248461D01*
X118029268Y-111619964D01*
X117775291Y-112147209D01*
X117772642Y-112162974D01*
X117893783Y-112395000D01*
X119253000Y-112395000D01*
X119253000Y-112375000D01*
X119507000Y-112375000D01*
X119507000Y-112395000D01*
X120866217Y-112395000D01*
X120987358Y-112162974D01*
X120984709Y-112147209D01*
X120730732Y-111619964D01*
X120314931Y-111248461D01*
X120624415Y-111041670D01*
X120949271Y-110555489D01*
X121063345Y-109982000D01*
X120949271Y-109408511D01*
X120624415Y-108922330D01*
X120610087Y-108912757D01*
X120631317Y-108908762D01*
X120705116Y-108861274D01*
X121135000Y-109291157D01*
G36*
X121135000Y-95829158D02*
X121135000Y-104576842D01*
X119780882Y-105930960D01*
X118364000Y-105930960D01*
X118128683Y-105975238D01*
X117912559Y-106114310D01*
X117767569Y-106326510D01*
X117716560Y-106578400D01*
X117716560Y-108305600D01*
X117760838Y-108540917D01*
X117899910Y-108757041D01*
X118112110Y-108902031D01*
X118153439Y-108910400D01*
X118135585Y-108922330D01*
X117952056Y-109197000D01*
X117602000Y-109197000D01*
X117301593Y-109256755D01*
X117046921Y-109426921D01*
X115905242Y-110568600D01*
X115483658Y-110568600D01*
X115300129Y-110293930D01*
X114985348Y-110083600D01*
X115300129Y-109873270D01*
X115624985Y-109387089D01*
X115739059Y-108813600D01*
X115624985Y-108240111D01*
X115300129Y-107753930D01*
X114985348Y-107543600D01*
X115300129Y-107333270D01*
X115624985Y-106847089D01*
X115739059Y-106273600D01*
X115624985Y-105700111D01*
X115300129Y-105213930D01*
X114985348Y-105003600D01*
X115300129Y-104793270D01*
X115483658Y-104518600D01*
X116738400Y-104518600D01*
X117038807Y-104458845D01*
X117293479Y-104288679D01*
X117823156Y-103759002D01*
X117893782Y-103759002D01*
X117772642Y-103991026D01*
X117775291Y-104006791D01*
X118029268Y-104534036D01*
X118465680Y-104923954D01*
X119018087Y-105117184D01*
X119253000Y-104972924D01*
X119253000Y-103759000D01*
X119507000Y-103759000D01*
X119507000Y-104972924D01*
X119741913Y-105117184D01*
X120294320Y-104923954D01*
X120730732Y-104534036D01*
X120984709Y-104006791D01*
X120987358Y-103991026D01*
X120866217Y-103759000D01*
X119507000Y-103759000D01*
X119253000Y-103759000D01*
X119233000Y-103759000D01*
X119233000Y-103505000D01*
X119253000Y-103505000D01*
X119253000Y-103485000D01*
X119507000Y-103485000D01*
X119507000Y-103505000D01*
X120866217Y-103505000D01*
X120987358Y-103272974D01*
X120984709Y-103257209D01*
X120730732Y-102729964D01*
X120314931Y-102358461D01*
X120624415Y-102151670D01*
X120949271Y-101665489D01*
X121063345Y-101092000D01*
X120949271Y-100518511D01*
X120624415Y-100032330D01*
X120309634Y-99822000D01*
X120624415Y-99611670D01*
X120949271Y-99125489D01*
X121063345Y-98552000D01*
X120949271Y-97978511D01*
X120624415Y-97492330D01*
X120309634Y-97282000D01*
X120624415Y-97071670D01*
X120949271Y-96585489D01*
X121063345Y-96012000D01*
X121000153Y-95694311D01*
X121135000Y-95829158D01*
X121135000Y-95829158D01*
G37*
X121135000Y-95829158D02*
X121135000Y-104576842D01*
X119780882Y-105930960D01*
X118364000Y-105930960D01*
X118128683Y-105975238D01*
X117912559Y-106114310D01*
X117767569Y-106326510D01*
X117716560Y-106578400D01*
X117716560Y-108305600D01*
X117760838Y-108540917D01*
X117899910Y-108757041D01*
X118112110Y-108902031D01*
X118153439Y-108910400D01*
X118135585Y-108922330D01*
X117952056Y-109197000D01*
X117602000Y-109197000D01*
X117301593Y-109256755D01*
X117046921Y-109426921D01*
X115905242Y-110568600D01*
X115483658Y-110568600D01*
X115300129Y-110293930D01*
X114985348Y-110083600D01*
X115300129Y-109873270D01*
X115624985Y-109387089D01*
X115739059Y-108813600D01*
X115624985Y-108240111D01*
X115300129Y-107753930D01*
X114985348Y-107543600D01*
X115300129Y-107333270D01*
X115624985Y-106847089D01*
X115739059Y-106273600D01*
X115624985Y-105700111D01*
X115300129Y-105213930D01*
X114985348Y-105003600D01*
X115300129Y-104793270D01*
X115483658Y-104518600D01*
X116738400Y-104518600D01*
X117038807Y-104458845D01*
X117293479Y-104288679D01*
X117823156Y-103759002D01*
X117893782Y-103759002D01*
X117772642Y-103991026D01*
X117775291Y-104006791D01*
X118029268Y-104534036D01*
X118465680Y-104923954D01*
X119018087Y-105117184D01*
X119253000Y-104972924D01*
X119253000Y-103759000D01*
X119507000Y-103759000D01*
X119507000Y-104972924D01*
X119741913Y-105117184D01*
X120294320Y-104923954D01*
X120730732Y-104534036D01*
X120984709Y-104006791D01*
X120987358Y-103991026D01*
X120866217Y-103759000D01*
X119507000Y-103759000D01*
X119253000Y-103759000D01*
X119233000Y-103759000D01*
X119233000Y-103505000D01*
X119253000Y-103505000D01*
X119253000Y-103485000D01*
X119507000Y-103485000D01*
X119507000Y-103505000D01*
X120866217Y-103505000D01*
X120987358Y-103272974D01*
X120984709Y-103257209D01*
X120730732Y-102729964D01*
X120314931Y-102358461D01*
X120624415Y-102151670D01*
X120949271Y-101665489D01*
X121063345Y-101092000D01*
X120949271Y-100518511D01*
X120624415Y-100032330D01*
X120309634Y-99822000D01*
X120624415Y-99611670D01*
X120949271Y-99125489D01*
X121063345Y-98552000D01*
X120949271Y-97978511D01*
X120624415Y-97492330D01*
X120309634Y-97282000D01*
X120624415Y-97071670D01*
X120949271Y-96585489D01*
X121063345Y-96012000D01*
X121000153Y-95694311D01*
X121135000Y-95829158D01*
G36*
X117791753Y-95533911D02*
X117696655Y-96012000D01*
X117810729Y-96585489D01*
X118135585Y-97071670D01*
X118450366Y-97282000D01*
X118135585Y-97492330D01*
X117810729Y-97978511D01*
X117696655Y-98552000D01*
X117791753Y-99030089D01*
X116413242Y-100408600D01*
X115483658Y-100408600D01*
X115300129Y-100133930D01*
X114976872Y-99917936D01*
X115099590Y-99860421D01*
X115493788Y-99428547D01*
X115666058Y-99012626D01*
X115544917Y-98780600D01*
X114338100Y-98780600D01*
X114338100Y-98800600D01*
X114084100Y-98800600D01*
X114084100Y-98780600D01*
X114064100Y-98780600D01*
X114064100Y-98526600D01*
X114084100Y-98526600D01*
X114084100Y-98506600D01*
X114338100Y-98506600D01*
X114338100Y-98526600D01*
X115544917Y-98526600D01*
X115666058Y-98294574D01*
X115493788Y-97878653D01*
X115099590Y-97446779D01*
X114976872Y-97389264D01*
X115300129Y-97173270D01*
X115624985Y-96687089D01*
X115739059Y-96113600D01*
X115624985Y-95540111D01*
X115300129Y-95053930D01*
X114985348Y-94843600D01*
X115300129Y-94633270D01*
X115483658Y-94358600D01*
X116616442Y-94358600D01*
X117791753Y-95533911D01*
X117791753Y-95533911D01*
G37*
X117791753Y-95533911D02*
X117696655Y-96012000D01*
X117810729Y-96585489D01*
X118135585Y-97071670D01*
X118450366Y-97282000D01*
X118135585Y-97492330D01*
X117810729Y-97978511D01*
X117696655Y-98552000D01*
X117791753Y-99030089D01*
X116413242Y-100408600D01*
X115483658Y-100408600D01*
X115300129Y-100133930D01*
X114976872Y-99917936D01*
X115099590Y-99860421D01*
X115493788Y-99428547D01*
X115666058Y-99012626D01*
X115544917Y-98780600D01*
X114338100Y-98780600D01*
X114338100Y-98800600D01*
X114084100Y-98800600D01*
X114084100Y-98780600D01*
X114064100Y-98780600D01*
X114064100Y-98526600D01*
X114084100Y-98526600D01*
X114084100Y-98506600D01*
X114338100Y-98506600D01*
X114338100Y-98526600D01*
X115544917Y-98526600D01*
X115666058Y-98294574D01*
X115493788Y-97878653D01*
X115099590Y-97446779D01*
X114976872Y-97389264D01*
X115300129Y-97173270D01*
X115624985Y-96687089D01*
X115739059Y-96113600D01*
X115624985Y-95540111D01*
X115300129Y-95053930D01*
X114985348Y-94843600D01*
X115300129Y-94633270D01*
X115483658Y-94358600D01*
X116616442Y-94358600D01*
X117791753Y-95533911D01*
G36*
X171502000Y-110288000D02*
X132282000Y-110288000D01*
X132282000Y-109357326D01*
X159760279Y-109357326D01*
X159805469Y-109579142D01*
X160257411Y-109732925D01*
X160733802Y-109702051D01*
X161030531Y-109579142D01*
X161075721Y-109357326D01*
X160418000Y-108699605D01*
X159760279Y-109357326D01*
X132282000Y-109357326D01*
X132282000Y-103886000D01*
X138407000Y-103886000D01*
X138407000Y-107696000D01*
X138466755Y-107996406D01*
X138636921Y-108251079D01*
X138891594Y-108421245D01*
X139192000Y-108481000D01*
X156972000Y-108481000D01*
X157272407Y-108421245D01*
X157364948Y-108359411D01*
X159205075Y-108359411D01*
X159235949Y-108835802D01*
X159358858Y-109132531D01*
X159580674Y-109177721D01*
X160238395Y-108520000D01*
X159580674Y-107862279D01*
X159358858Y-107907469D01*
X159205075Y-108359411D01*
X157364948Y-108359411D01*
X157527079Y-108251079D01*
X158095484Y-107682674D01*
X159760279Y-107682674D01*
X160418000Y-108340395D01*
X161075721Y-107682674D01*
X161030531Y-107460858D01*
X160578589Y-107307075D01*
X160102198Y-107337949D01*
X159805469Y-107460858D01*
X159760279Y-107682674D01*
X158095484Y-107682674D01*
X158567158Y-107211000D01*
X160964842Y-107211000D01*
X161497330Y-107743488D01*
X161401283Y-107839367D01*
X161381127Y-107887908D01*
X161255326Y-107862279D01*
X160597605Y-108520000D01*
X161255326Y-109177721D01*
X161380801Y-109152158D01*
X161400097Y-109198857D01*
X161737367Y-109536717D01*
X162178258Y-109719791D01*
X162655647Y-109720207D01*
X163096857Y-109537903D01*
X163418265Y-109217057D01*
X163737367Y-109536717D01*
X164178258Y-109719791D01*
X164655647Y-109720207D01*
X165096857Y-109537903D01*
X165418265Y-109217057D01*
X165737367Y-109536717D01*
X166178258Y-109719791D01*
X166655647Y-109720207D01*
X167096857Y-109537903D01*
X167418265Y-109217057D01*
X167737367Y-109536717D01*
X168178258Y-109719791D01*
X168655647Y-109720207D01*
X169096857Y-109537903D01*
X169434717Y-109200633D01*
X169617791Y-108759742D01*
X169618207Y-108282353D01*
X169435903Y-107841143D01*
X169098633Y-107503283D01*
X168657742Y-107320209D01*
X168180353Y-107319793D01*
X167739143Y-107502097D01*
X167417735Y-107822943D01*
X167098633Y-107503283D01*
X166657742Y-107320209D01*
X166180353Y-107319793D01*
X165739143Y-107502097D01*
X165417735Y-107822943D01*
X165098633Y-107503283D01*
X164657742Y-107320209D01*
X164180353Y-107319793D01*
X163739143Y-107502097D01*
X163417735Y-107822943D01*
X163203000Y-107607833D01*
X163203000Y-107554000D01*
X163143245Y-107253594D01*
X162973079Y-106998921D01*
X161845079Y-105870921D01*
X161590407Y-105700755D01*
X161290000Y-105641000D01*
X158242000Y-105641000D01*
X157941593Y-105700755D01*
X157686921Y-105870921D01*
X156646842Y-106911000D01*
X142801358Y-106911000D01*
X142983317Y-106876762D01*
X143199441Y-106737690D01*
X143344431Y-106525490D01*
X143395440Y-106273600D01*
X143395440Y-106195000D01*
X146540220Y-106195000D01*
X146840627Y-106135245D01*
X147095299Y-105965079D01*
X148398668Y-104661710D01*
X148736050Y-104661710D01*
X148971367Y-104617432D01*
X149187491Y-104478360D01*
X149332481Y-104266160D01*
X149383490Y-104014270D01*
X149383490Y-103214170D01*
X149339212Y-102978853D01*
X149200140Y-102762729D01*
X149053787Y-102662730D01*
X149686050Y-102662730D01*
X149921367Y-102618452D01*
X150137491Y-102479380D01*
X150191565Y-102400240D01*
X155686760Y-102400240D01*
X155987167Y-102340485D01*
X156241839Y-102170319D01*
X162973079Y-95439079D01*
X163143245Y-95184406D01*
X163203000Y-94884000D01*
X163203000Y-94431945D01*
X163418265Y-94217057D01*
X163737367Y-94536717D01*
X164178258Y-94719791D01*
X164655647Y-94720207D01*
X165096857Y-94537903D01*
X165277749Y-94357326D01*
X165760279Y-94357326D01*
X165805469Y-94579142D01*
X166257411Y-94732925D01*
X166733802Y-94702051D01*
X167030531Y-94579142D01*
X167075721Y-94357326D01*
X166418000Y-93699605D01*
X165760279Y-94357326D01*
X165277749Y-94357326D01*
X165434717Y-94200633D01*
X165454873Y-94152092D01*
X165580674Y-94177721D01*
X166238395Y-93520000D01*
X166597605Y-93520000D01*
X167255326Y-94177721D01*
X167380801Y-94152158D01*
X167400097Y-94198857D01*
X167737367Y-94536717D01*
X168178258Y-94719791D01*
X168655647Y-94720207D01*
X169096857Y-94537903D01*
X169434717Y-94200633D01*
X169617791Y-93759742D01*
X169618207Y-93282353D01*
X169435903Y-92841143D01*
X169098633Y-92503283D01*
X168657742Y-92320209D01*
X168180353Y-92319793D01*
X167739143Y-92502097D01*
X167401283Y-92839367D01*
X167381127Y-92887908D01*
X167255326Y-92862279D01*
X166597605Y-93520000D01*
X166238395Y-93520000D01*
X165580674Y-92862279D01*
X165455199Y-92887842D01*
X165435903Y-92841143D01*
X165277711Y-92682674D01*
X165760279Y-92682674D01*
X166418000Y-93340395D01*
X167075721Y-92682674D01*
X167030531Y-92460858D01*
X166578589Y-92307075D01*
X166102198Y-92337949D01*
X165805469Y-92460858D01*
X165760279Y-92682674D01*
X165277711Y-92682674D01*
X165098633Y-92503283D01*
X164657742Y-92320209D01*
X164180353Y-92319793D01*
X163739143Y-92502097D01*
X163417735Y-92822943D01*
X163098633Y-92503283D01*
X162657742Y-92320209D01*
X162180353Y-92319793D01*
X161739143Y-92502097D01*
X161417735Y-92822943D01*
X161098633Y-92503283D01*
X160657742Y-92320209D01*
X160180353Y-92319793D01*
X159739143Y-92502097D01*
X159401283Y-92839367D01*
X159218209Y-93280258D01*
X159217793Y-93757647D01*
X159400097Y-94198857D01*
X159737367Y-94536717D01*
X160178258Y-94719791D01*
X160655647Y-94720207D01*
X161096857Y-94537903D01*
X161418265Y-94217057D01*
X161633000Y-94432167D01*
X161633000Y-94558842D01*
X155361602Y-100830240D01*
X150192926Y-100830240D01*
X150150140Y-100763749D01*
X149937940Y-100618759D01*
X149686050Y-100567750D01*
X148885950Y-100567750D01*
X148650633Y-100612028D01*
X148434509Y-100751100D01*
X148335368Y-100896197D01*
X148250140Y-100763749D01*
X148171000Y-100709675D01*
X148171000Y-99078881D01*
X148312431Y-98871890D01*
X148363440Y-98620000D01*
X148363440Y-97120000D01*
X148319162Y-96884683D01*
X148180090Y-96668559D01*
X147967890Y-96523569D01*
X147934510Y-96516809D01*
X148075699Y-96458327D01*
X148254327Y-96279698D01*
X148351000Y-96046309D01*
X148351000Y-95455750D01*
X148192250Y-95297000D01*
X147193000Y-95297000D01*
X147193000Y-95317000D01*
X146939000Y-95317000D01*
X146939000Y-95297000D01*
X145939750Y-95297000D01*
X145781000Y-95455750D01*
X145781000Y-96046309D01*
X145877673Y-96279698D01*
X146056301Y-96458327D01*
X146192287Y-96514654D01*
X146180683Y-96516838D01*
X145964559Y-96655910D01*
X145819569Y-96868110D01*
X145791848Y-97005000D01*
X143159944Y-97005000D01*
X142976415Y-96730330D01*
X142666931Y-96523539D01*
X143082732Y-96152036D01*
X143336709Y-95624791D01*
X143339358Y-95609026D01*
X143218217Y-95377000D01*
X141859000Y-95377000D01*
X141859000Y-95397000D01*
X141605000Y-95397000D01*
X141605000Y-95377000D01*
X141585000Y-95377000D01*
X141585000Y-95123000D01*
X141605000Y-95123000D01*
X141605000Y-95103000D01*
X141859000Y-95103000D01*
X141859000Y-95123000D01*
X143218217Y-95123000D01*
X143339358Y-94890974D01*
X143336709Y-94875209D01*
X143082732Y-94347964D01*
X143034645Y-94305000D01*
X145781000Y-94305000D01*
X145781000Y-94884250D01*
X145939750Y-95043000D01*
X146939000Y-95043000D01*
X146939000Y-95023000D01*
X147193000Y-95023000D01*
X147193000Y-95043000D01*
X148192250Y-95043000D01*
X148351000Y-94884250D01*
X148351000Y-94305000D01*
X155506055Y-94305000D01*
X155737367Y-94536717D01*
X156178258Y-94719791D01*
X156655647Y-94720207D01*
X157096857Y-94537903D01*
X157434717Y-94200633D01*
X157617791Y-93759742D01*
X157618207Y-93282353D01*
X157435903Y-92841143D01*
X157098633Y-92503283D01*
X156657742Y-92320209D01*
X156180353Y-92319793D01*
X155739143Y-92502097D01*
X155505833Y-92735000D01*
X139906000Y-92735000D01*
X139605593Y-92794755D01*
X139350921Y-92964921D01*
X138890921Y-93424921D01*
X138720755Y-93679593D01*
X138692745Y-93820407D01*
X138661000Y-93980000D01*
X138661000Y-101346000D01*
X138720755Y-101646407D01*
X138890921Y-101901079D01*
X139478842Y-102489000D01*
X138636921Y-103330921D01*
X138466755Y-103585593D01*
X138466755Y-103585594D01*
X138407000Y-103886000D01*
X132282000Y-103886000D01*
X132282000Y-92150000D01*
X171502000Y-92150000D01*
X171502000Y-110288000D01*
X171502000Y-110288000D01*
G37*
X171502000Y-110288000D02*
X132282000Y-110288000D01*
X132282000Y-109357326D01*
X159760279Y-109357326D01*
X159805469Y-109579142D01*
X160257411Y-109732925D01*
X160733802Y-109702051D01*
X161030531Y-109579142D01*
X161075721Y-109357326D01*
X160418000Y-108699605D01*
X159760279Y-109357326D01*
X132282000Y-109357326D01*
X132282000Y-103886000D01*
X138407000Y-103886000D01*
X138407000Y-107696000D01*
X138466755Y-107996406D01*
X138636921Y-108251079D01*
X138891594Y-108421245D01*
X139192000Y-108481000D01*
X156972000Y-108481000D01*
X157272407Y-108421245D01*
X157364948Y-108359411D01*
X159205075Y-108359411D01*
X159235949Y-108835802D01*
X159358858Y-109132531D01*
X159580674Y-109177721D01*
X160238395Y-108520000D01*
X159580674Y-107862279D01*
X159358858Y-107907469D01*
X159205075Y-108359411D01*
X157364948Y-108359411D01*
X157527079Y-108251079D01*
X158095484Y-107682674D01*
X159760279Y-107682674D01*
X160418000Y-108340395D01*
X161075721Y-107682674D01*
X161030531Y-107460858D01*
X160578589Y-107307075D01*
X160102198Y-107337949D01*
X159805469Y-107460858D01*
X159760279Y-107682674D01*
X158095484Y-107682674D01*
X158567158Y-107211000D01*
X160964842Y-107211000D01*
X161497330Y-107743488D01*
X161401283Y-107839367D01*
X161381127Y-107887908D01*
X161255326Y-107862279D01*
X160597605Y-108520000D01*
X161255326Y-109177721D01*
X161380801Y-109152158D01*
X161400097Y-109198857D01*
X161737367Y-109536717D01*
X162178258Y-109719791D01*
X162655647Y-109720207D01*
X163096857Y-109537903D01*
X163418265Y-109217057D01*
X163737367Y-109536717D01*
X164178258Y-109719791D01*
X164655647Y-109720207D01*
X165096857Y-109537903D01*
X165418265Y-109217057D01*
X165737367Y-109536717D01*
X166178258Y-109719791D01*
X166655647Y-109720207D01*
X167096857Y-109537903D01*
X167418265Y-109217057D01*
X167737367Y-109536717D01*
X168178258Y-109719791D01*
X168655647Y-109720207D01*
X169096857Y-109537903D01*
X169434717Y-109200633D01*
X169617791Y-108759742D01*
X169618207Y-108282353D01*
X169435903Y-107841143D01*
X169098633Y-107503283D01*
X168657742Y-107320209D01*
X168180353Y-107319793D01*
X167739143Y-107502097D01*
X167417735Y-107822943D01*
X167098633Y-107503283D01*
X166657742Y-107320209D01*
X166180353Y-107319793D01*
X165739143Y-107502097D01*
X165417735Y-107822943D01*
X165098633Y-107503283D01*
X164657742Y-107320209D01*
X164180353Y-107319793D01*
X163739143Y-107502097D01*
X163417735Y-107822943D01*
X163203000Y-107607833D01*
X163203000Y-107554000D01*
X163143245Y-107253594D01*
X162973079Y-106998921D01*
X161845079Y-105870921D01*
X161590407Y-105700755D01*
X161290000Y-105641000D01*
X158242000Y-105641000D01*
X157941593Y-105700755D01*
X157686921Y-105870921D01*
X156646842Y-106911000D01*
X142801358Y-106911000D01*
X142983317Y-106876762D01*
X143199441Y-106737690D01*
X143344431Y-106525490D01*
X143395440Y-106273600D01*
X143395440Y-106195000D01*
X146540220Y-106195000D01*
X146840627Y-106135245D01*
X147095299Y-105965079D01*
X148398668Y-104661710D01*
X148736050Y-104661710D01*
X148971367Y-104617432D01*
X149187491Y-104478360D01*
X149332481Y-104266160D01*
X149383490Y-104014270D01*
X149383490Y-103214170D01*
X149339212Y-102978853D01*
X149200140Y-102762729D01*
X149053787Y-102662730D01*
X149686050Y-102662730D01*
X149921367Y-102618452D01*
X150137491Y-102479380D01*
X150191565Y-102400240D01*
X155686760Y-102400240D01*
X155987167Y-102340485D01*
X156241839Y-102170319D01*
X162973079Y-95439079D01*
X163143245Y-95184406D01*
X163203000Y-94884000D01*
X163203000Y-94431945D01*
X163418265Y-94217057D01*
X163737367Y-94536717D01*
X164178258Y-94719791D01*
X164655647Y-94720207D01*
X165096857Y-94537903D01*
X165277749Y-94357326D01*
X165760279Y-94357326D01*
X165805469Y-94579142D01*
X166257411Y-94732925D01*
X166733802Y-94702051D01*
X167030531Y-94579142D01*
X167075721Y-94357326D01*
X166418000Y-93699605D01*
X165760279Y-94357326D01*
X165277749Y-94357326D01*
X165434717Y-94200633D01*
X165454873Y-94152092D01*
X165580674Y-94177721D01*
X166238395Y-93520000D01*
X166597605Y-93520000D01*
X167255326Y-94177721D01*
X167380801Y-94152158D01*
X167400097Y-94198857D01*
X167737367Y-94536717D01*
X168178258Y-94719791D01*
X168655647Y-94720207D01*
X169096857Y-94537903D01*
X169434717Y-94200633D01*
X169617791Y-93759742D01*
X169618207Y-93282353D01*
X169435903Y-92841143D01*
X169098633Y-92503283D01*
X168657742Y-92320209D01*
X168180353Y-92319793D01*
X167739143Y-92502097D01*
X167401283Y-92839367D01*
X167381127Y-92887908D01*
X167255326Y-92862279D01*
X166597605Y-93520000D01*
X166238395Y-93520000D01*
X165580674Y-92862279D01*
X165455199Y-92887842D01*
X165435903Y-92841143D01*
X165277711Y-92682674D01*
X165760279Y-92682674D01*
X166418000Y-93340395D01*
X167075721Y-92682674D01*
X167030531Y-92460858D01*
X166578589Y-92307075D01*
X166102198Y-92337949D01*
X165805469Y-92460858D01*
X165760279Y-92682674D01*
X165277711Y-92682674D01*
X165098633Y-92503283D01*
X164657742Y-92320209D01*
X164180353Y-92319793D01*
X163739143Y-92502097D01*
X163417735Y-92822943D01*
X163098633Y-92503283D01*
X162657742Y-92320209D01*
X162180353Y-92319793D01*
X161739143Y-92502097D01*
X161417735Y-92822943D01*
X161098633Y-92503283D01*
X160657742Y-92320209D01*
X160180353Y-92319793D01*
X159739143Y-92502097D01*
X159401283Y-92839367D01*
X159218209Y-93280258D01*
X159217793Y-93757647D01*
X159400097Y-94198857D01*
X159737367Y-94536717D01*
X160178258Y-94719791D01*
X160655647Y-94720207D01*
X161096857Y-94537903D01*
X161418265Y-94217057D01*
X161633000Y-94432167D01*
X161633000Y-94558842D01*
X155361602Y-100830240D01*
X150192926Y-100830240D01*
X150150140Y-100763749D01*
X149937940Y-100618759D01*
X149686050Y-100567750D01*
X148885950Y-100567750D01*
X148650633Y-100612028D01*
X148434509Y-100751100D01*
X148335368Y-100896197D01*
X148250140Y-100763749D01*
X148171000Y-100709675D01*
X148171000Y-99078881D01*
X148312431Y-98871890D01*
X148363440Y-98620000D01*
X148363440Y-97120000D01*
X148319162Y-96884683D01*
X148180090Y-96668559D01*
X147967890Y-96523569D01*
X147934510Y-96516809D01*
X148075699Y-96458327D01*
X148254327Y-96279698D01*
X148351000Y-96046309D01*
X148351000Y-95455750D01*
X148192250Y-95297000D01*
X147193000Y-95297000D01*
X147193000Y-95317000D01*
X146939000Y-95317000D01*
X146939000Y-95297000D01*
X145939750Y-95297000D01*
X145781000Y-95455750D01*
X145781000Y-96046309D01*
X145877673Y-96279698D01*
X146056301Y-96458327D01*
X146192287Y-96514654D01*
X146180683Y-96516838D01*
X145964559Y-96655910D01*
X145819569Y-96868110D01*
X145791848Y-97005000D01*
X143159944Y-97005000D01*
X142976415Y-96730330D01*
X142666931Y-96523539D01*
X143082732Y-96152036D01*
X143336709Y-95624791D01*
X143339358Y-95609026D01*
X143218217Y-95377000D01*
X141859000Y-95377000D01*
X141859000Y-95397000D01*
X141605000Y-95397000D01*
X141605000Y-95377000D01*
X141585000Y-95377000D01*
X141585000Y-95123000D01*
X141605000Y-95123000D01*
X141605000Y-95103000D01*
X141859000Y-95103000D01*
X141859000Y-95123000D01*
X143218217Y-95123000D01*
X143339358Y-94890974D01*
X143336709Y-94875209D01*
X143082732Y-94347964D01*
X143034645Y-94305000D01*
X145781000Y-94305000D01*
X145781000Y-94884250D01*
X145939750Y-95043000D01*
X146939000Y-95043000D01*
X146939000Y-95023000D01*
X147193000Y-95023000D01*
X147193000Y-95043000D01*
X148192250Y-95043000D01*
X148351000Y-94884250D01*
X148351000Y-94305000D01*
X155506055Y-94305000D01*
X155737367Y-94536717D01*
X156178258Y-94719791D01*
X156655647Y-94720207D01*
X157096857Y-94537903D01*
X157434717Y-94200633D01*
X157617791Y-93759742D01*
X157618207Y-93282353D01*
X157435903Y-92841143D01*
X157098633Y-92503283D01*
X156657742Y-92320209D01*
X156180353Y-92319793D01*
X155739143Y-92502097D01*
X155505833Y-92735000D01*
X139906000Y-92735000D01*
X139605593Y-92794755D01*
X139350921Y-92964921D01*
X138890921Y-93424921D01*
X138720755Y-93679593D01*
X138692745Y-93820407D01*
X138661000Y-93980000D01*
X138661000Y-101346000D01*
X138720755Y-101646407D01*
X138890921Y-101901079D01*
X139478842Y-102489000D01*
X138636921Y-103330921D01*
X138466755Y-103585593D01*
X138466755Y-103585594D01*
X138407000Y-103886000D01*
X132282000Y-103886000D01*
X132282000Y-92150000D01*
X171502000Y-92150000D01*
X171502000Y-110288000D01*
G36*
X162866000Y-125274000D02*
X132282000Y-125274000D01*
X132282000Y-120396000D01*
X140048655Y-120396000D01*
X140162729Y-120969489D01*
X140487585Y-121455670D01*
X140501913Y-121465243D01*
X140480683Y-121469238D01*
X140264559Y-121608310D01*
X140119569Y-121820510D01*
X140068560Y-122072400D01*
X140068560Y-123799600D01*
X140112838Y-124034917D01*
X140251910Y-124251041D01*
X140464110Y-124396031D01*
X140716000Y-124447040D01*
X142748000Y-124447040D01*
X142983317Y-124402762D01*
X143199441Y-124263690D01*
X143344431Y-124051490D01*
X143395440Y-123799600D01*
X143395440Y-123721000D01*
X145260560Y-123721000D01*
X145260560Y-124020000D01*
X145304838Y-124255317D01*
X145443910Y-124471441D01*
X145656110Y-124616431D01*
X145908000Y-124667440D01*
X147208000Y-124667440D01*
X147443317Y-124623162D01*
X147659441Y-124484090D01*
X147804431Y-124271890D01*
X147855440Y-124020000D01*
X147855440Y-122520000D01*
X147811162Y-122284683D01*
X147672090Y-122068559D01*
X147459890Y-121923569D01*
X147446803Y-121920919D01*
X147659441Y-121784090D01*
X147804431Y-121571890D01*
X147848352Y-121355000D01*
X158953905Y-121355000D01*
X158877332Y-121539410D01*
X158876670Y-122297265D01*
X159166078Y-122997686D01*
X159701495Y-123534039D01*
X160401410Y-123824668D01*
X161159265Y-123825330D01*
X161859686Y-123535922D01*
X162396039Y-123000505D01*
X162686668Y-122300590D01*
X162687330Y-121542735D01*
X162397922Y-120842314D01*
X161862505Y-120305961D01*
X161162590Y-120015332D01*
X160404735Y-120014670D01*
X160109016Y-120136858D01*
X159987079Y-120014921D01*
X159732407Y-119844755D01*
X159432000Y-119785000D01*
X147848854Y-119785000D01*
X147811162Y-119584683D01*
X147672090Y-119368559D01*
X147459890Y-119223569D01*
X147208000Y-119172560D01*
X145908000Y-119172560D01*
X145672683Y-119216838D01*
X145456559Y-119355910D01*
X145311569Y-119568110D01*
X145302884Y-119611000D01*
X143159944Y-119611000D01*
X142976415Y-119336330D01*
X142666931Y-119129539D01*
X143082732Y-118758036D01*
X143336709Y-118230791D01*
X143339358Y-118215026D01*
X143325132Y-118187777D01*
X149453828Y-118187777D01*
X149585520Y-118482657D01*
X150293036Y-118754261D01*
X151050632Y-118734436D01*
X151658480Y-118482657D01*
X151790172Y-118187777D01*
X150622000Y-117019605D01*
X149453828Y-118187777D01*
X143325132Y-118187777D01*
X143218217Y-117983000D01*
X141859000Y-117983000D01*
X141859000Y-118003000D01*
X141605000Y-118003000D01*
X141605000Y-117983000D01*
X140245783Y-117983000D01*
X140124642Y-118215026D01*
X140127291Y-118230791D01*
X140381268Y-118758036D01*
X140797069Y-119129539D01*
X140487585Y-119336330D01*
X140162729Y-119822511D01*
X140048655Y-120396000D01*
X132282000Y-120396000D01*
X132282000Y-117496974D01*
X140124642Y-117496974D01*
X140245783Y-117729000D01*
X141605000Y-117729000D01*
X141605000Y-116515076D01*
X141859000Y-116515076D01*
X141859000Y-117729000D01*
X143218217Y-117729000D01*
X143339358Y-117496974D01*
X143336709Y-117481209D01*
X143082732Y-116953964D01*
X142646320Y-116564046D01*
X142494775Y-116511036D01*
X148707739Y-116511036D01*
X148727564Y-117268632D01*
X148979343Y-117876480D01*
X149274223Y-118008172D01*
X150442395Y-116840000D01*
X150801605Y-116840000D01*
X151969777Y-118008172D01*
X152264657Y-117876480D01*
X152536261Y-117168964D01*
X152516436Y-116411368D01*
X152264657Y-115803520D01*
X151969777Y-115671828D01*
X150801605Y-116840000D01*
X150442395Y-116840000D01*
X149274223Y-115671828D01*
X148979343Y-115803520D01*
X148707739Y-116511036D01*
X142494775Y-116511036D01*
X142093913Y-116370816D01*
X141859000Y-116515076D01*
X141605000Y-116515076D01*
X141370087Y-116370816D01*
X140817680Y-116564046D01*
X140381268Y-116953964D01*
X140127291Y-117481209D01*
X140124642Y-117496974D01*
X132282000Y-117496974D01*
X132282000Y-115492223D01*
X149453828Y-115492223D01*
X150622000Y-116660395D01*
X151790172Y-115492223D01*
X151658480Y-115197343D01*
X150950964Y-114925739D01*
X150193368Y-114945564D01*
X149585520Y-115197343D01*
X149453828Y-115492223D01*
X132282000Y-115492223D01*
X132282000Y-113486000D01*
X162866000Y-113486000D01*
X162866000Y-125274000D01*
X162866000Y-125274000D01*
G37*
X162866000Y-125274000D02*
X132282000Y-125274000D01*
X132282000Y-120396000D01*
X140048655Y-120396000D01*
X140162729Y-120969489D01*
X140487585Y-121455670D01*
X140501913Y-121465243D01*
X140480683Y-121469238D01*
X140264559Y-121608310D01*
X140119569Y-121820510D01*
X140068560Y-122072400D01*
X140068560Y-123799600D01*
X140112838Y-124034917D01*
X140251910Y-124251041D01*
X140464110Y-124396031D01*
X140716000Y-124447040D01*
X142748000Y-124447040D01*
X142983317Y-124402762D01*
X143199441Y-124263690D01*
X143344431Y-124051490D01*
X143395440Y-123799600D01*
X143395440Y-123721000D01*
X145260560Y-123721000D01*
X145260560Y-124020000D01*
X145304838Y-124255317D01*
X145443910Y-124471441D01*
X145656110Y-124616431D01*
X145908000Y-124667440D01*
X147208000Y-124667440D01*
X147443317Y-124623162D01*
X147659441Y-124484090D01*
X147804431Y-124271890D01*
X147855440Y-124020000D01*
X147855440Y-122520000D01*
X147811162Y-122284683D01*
X147672090Y-122068559D01*
X147459890Y-121923569D01*
X147446803Y-121920919D01*
X147659441Y-121784090D01*
X147804431Y-121571890D01*
X147848352Y-121355000D01*
X158953905Y-121355000D01*
X158877332Y-121539410D01*
X158876670Y-122297265D01*
X159166078Y-122997686D01*
X159701495Y-123534039D01*
X160401410Y-123824668D01*
X161159265Y-123825330D01*
X161859686Y-123535922D01*
X162396039Y-123000505D01*
X162686668Y-122300590D01*
X162687330Y-121542735D01*
X162397922Y-120842314D01*
X161862505Y-120305961D01*
X161162590Y-120015332D01*
X160404735Y-120014670D01*
X160109016Y-120136858D01*
X159987079Y-120014921D01*
X159732407Y-119844755D01*
X159432000Y-119785000D01*
X147848854Y-119785000D01*
X147811162Y-119584683D01*
X147672090Y-119368559D01*
X147459890Y-119223569D01*
X147208000Y-119172560D01*
X145908000Y-119172560D01*
X145672683Y-119216838D01*
X145456559Y-119355910D01*
X145311569Y-119568110D01*
X145302884Y-119611000D01*
X143159944Y-119611000D01*
X142976415Y-119336330D01*
X142666931Y-119129539D01*
X143082732Y-118758036D01*
X143336709Y-118230791D01*
X143339358Y-118215026D01*
X143325132Y-118187777D01*
X149453828Y-118187777D01*
X149585520Y-118482657D01*
X150293036Y-118754261D01*
X151050632Y-118734436D01*
X151658480Y-118482657D01*
X151790172Y-118187777D01*
X150622000Y-117019605D01*
X149453828Y-118187777D01*
X143325132Y-118187777D01*
X143218217Y-117983000D01*
X141859000Y-117983000D01*
X141859000Y-118003000D01*
X141605000Y-118003000D01*
X141605000Y-117983000D01*
X140245783Y-117983000D01*
X140124642Y-118215026D01*
X140127291Y-118230791D01*
X140381268Y-118758036D01*
X140797069Y-119129539D01*
X140487585Y-119336330D01*
X140162729Y-119822511D01*
X140048655Y-120396000D01*
X132282000Y-120396000D01*
X132282000Y-117496974D01*
X140124642Y-117496974D01*
X140245783Y-117729000D01*
X141605000Y-117729000D01*
X141605000Y-116515076D01*
X141859000Y-116515076D01*
X141859000Y-117729000D01*
X143218217Y-117729000D01*
X143339358Y-117496974D01*
X143336709Y-117481209D01*
X143082732Y-116953964D01*
X142646320Y-116564046D01*
X142494775Y-116511036D01*
X148707739Y-116511036D01*
X148727564Y-117268632D01*
X148979343Y-117876480D01*
X149274223Y-118008172D01*
X150442395Y-116840000D01*
X150801605Y-116840000D01*
X151969777Y-118008172D01*
X152264657Y-117876480D01*
X152536261Y-117168964D01*
X152516436Y-116411368D01*
X152264657Y-115803520D01*
X151969777Y-115671828D01*
X150801605Y-116840000D01*
X150442395Y-116840000D01*
X149274223Y-115671828D01*
X148979343Y-115803520D01*
X148707739Y-116511036D01*
X142494775Y-116511036D01*
X142093913Y-116370816D01*
X141859000Y-116515076D01*
X141605000Y-116515076D01*
X141370087Y-116370816D01*
X140817680Y-116564046D01*
X140381268Y-116953964D01*
X140127291Y-117481209D01*
X140124642Y-117496974D01*
X132282000Y-117496974D01*
X132282000Y-115492223D01*
X149453828Y-115492223D01*
X150622000Y-116660395D01*
X151790172Y-115492223D01*
X151658480Y-115197343D01*
X150950964Y-114925739D01*
X150193368Y-114945564D01*
X149585520Y-115197343D01*
X149453828Y-115492223D01*
X132282000Y-115492223D01*
X132282000Y-113486000D01*
X162866000Y-113486000D01*
X162866000Y-125274000D01*
M02*
