G04 #@! TF.FileFunction,Copper,L2,Bot,Signal*
%FSLAX46Y46*%
G04 Gerber Fmt 4.6, Leading zero omitted, Abs format (unit mm)*
G04 Created by KiCad (PCBNEW 4.0.2+dfsg1-stable) date Sat 05 Nov 2016 09:51:27 AM EDT*
%MOMM*%
G01*
G04 APERTURE LIST*
%ADD10C,0.100000*%
%ADD11R,1.727200X1.727200*%
%ADD12O,1.727200X1.727200*%
%ADD13R,2.032000X1.727200*%
%ADD14O,2.032000X1.727200*%
%ADD15C,2.540000*%
%ADD16C,1.130000*%
G04 APERTURE END LIST*
D10*
D11*
X111671100Y-93573600D03*
D12*
X114211100Y-93573600D03*
X111671100Y-96113600D03*
X114211100Y-96113600D03*
X111671100Y-98653600D03*
X114211100Y-98653600D03*
X111671100Y-101193600D03*
X114211100Y-101193600D03*
X111671100Y-103733600D03*
X114211100Y-103733600D03*
X111671100Y-106273600D03*
X114211100Y-106273600D03*
X111671100Y-108813600D03*
X114211100Y-108813600D03*
X111671100Y-111353600D03*
X114211100Y-111353600D03*
X111671100Y-113893600D03*
X114211100Y-113893600D03*
X111671100Y-116433600D03*
X114211100Y-116433600D03*
X111671100Y-118973600D03*
X114211100Y-118973600D03*
X111671100Y-121513600D03*
X114211100Y-121513600D03*
X111671100Y-124053600D03*
X114211100Y-124053600D03*
D13*
X119380000Y-93472000D03*
D14*
X119380000Y-96012000D03*
X119380000Y-98552000D03*
X119380000Y-101092000D03*
X119380000Y-103632000D03*
D13*
X119380000Y-107442000D03*
D14*
X119380000Y-109982000D03*
X119380000Y-112522000D03*
D13*
X119380000Y-116332000D03*
D14*
X119380000Y-118872000D03*
X119380000Y-121412000D03*
X119380000Y-123952000D03*
D13*
X142494000Y-105410000D03*
D14*
X142494000Y-102870000D03*
X142494000Y-100330000D03*
X142494000Y-97790000D03*
X142494000Y-95250000D03*
D13*
X141732000Y-122936000D03*
D14*
X141732000Y-120396000D03*
X141732000Y-117856000D03*
D15*
X160782000Y-121920000D03*
X150622000Y-116840000D03*
D16*
X168418000Y-93520000D03*
X166418000Y-93520000D03*
X164418000Y-93520000D03*
X162418000Y-93520000D03*
X160418000Y-93520000D03*
X156418000Y-93520000D03*
X168418000Y-108520000D03*
X166418000Y-108520000D03*
X164418000Y-108520000D03*
X162418000Y-108520000D03*
X160418000Y-108520000D03*
M02*
