M48
;DRILL file {KiCad 4.0.2+dfsg1-stable} date Fri 11 Nov 2016 01:00:40 AM EST
;FORMAT={-:-/ absolute / inch / decimal}
FMAT,2
INCH,TZ
T1C0.026
T2C0.040
T3C0.045
%
G90
G05
M72
T1
X6.5557Y-3.2094
X6.7132Y-3.2094
X6.7132Y-3.7999
X6.7919Y-3.2094
X6.7919Y-3.7999
X6.8706Y-3.2094
X6.8706Y-3.7999
X6.9494Y-3.2094
X6.9494Y-3.7999
X7.0281Y-3.2094
X7.0281Y-3.7999
T2
X4.3965Y-3.684
X4.3965Y-3.784
X4.3965Y-3.884
X4.3965Y-3.984
X4.3965Y-4.084
X4.3965Y-4.184
X4.3965Y-4.284
X4.3965Y-4.384
X4.3965Y-4.484
X4.3965Y-4.584
X4.3965Y-4.684
X4.3965Y-4.784
X4.3965Y-4.884
X4.4965Y-3.684
X4.4965Y-3.784
X4.4965Y-3.884
X4.4965Y-3.984
X4.4965Y-4.084
X4.4965Y-4.184
X4.4965Y-4.284
X4.4965Y-4.384
X4.4965Y-4.484
X4.4965Y-4.584
X4.4965Y-4.684
X4.4965Y-4.784
X4.4965Y-4.884
X4.9825Y-3.2725
X4.9825Y-3.3725
X4.9825Y-3.4725
X4.9825Y-3.5725
X4.9825Y-3.6725
X4.9925Y-3.8625
X4.9925Y-3.9625
X4.9925Y-4.0625
X4.9925Y-4.2725
X4.9925Y-4.3725
X4.9925Y-4.4725
X4.9925Y-4.7125
X4.9925Y-4.8125
X4.9925Y-5.0725
X4.9925Y-5.1725
X4.9925Y-5.2725
X4.9925Y-5.3725
X5.9925Y-4.265
X5.9925Y-4.365
X5.9925Y-4.465
X6.0075Y-3.2775
X6.0075Y-3.3775
X6.0075Y-3.4775
X6.0075Y-3.5775
X6.0075Y-3.6775
T3
X6.3425Y-4.225
X6.7425Y-4.425
T0
M30
