G04 #@! TF.FileFunction,Profile,NP*
%FSLAX46Y46*%
G04 Gerber Fmt 4.6, Leading zero omitted, Abs format (unit mm)*
G04 Created by KiCad (PCBNEW 4.0.2+dfsg1-stable) date Fri 11 Nov 2016 01:01:40 AM EST*
%MOMM*%
G01*
G04 APERTURE LIST*
%ADD10C,0.100000*%
%ADD11C,0.150000*%
G04 APERTURE END LIST*
D10*
D11*
X119888000Y-80073500D02*
X119951500Y-80073500D01*
X119824500Y-80073500D02*
X119888000Y-80073500D01*
X118110000Y-80073500D02*
X119824500Y-80073500D01*
X118046500Y-80137000D02*
X118110000Y-80073500D01*
X108521500Y-89662000D02*
X118046500Y-80137000D01*
X108521500Y-127444500D02*
X108521500Y-89662000D01*
X119824500Y-138747500D02*
X108521500Y-127444500D01*
X119951500Y-138747500D02*
X119824500Y-138747500D01*
X137477500Y-138747500D02*
X119951500Y-138747500D01*
X137477500Y-80073500D02*
X137477500Y-138747500D01*
X137414000Y-80073500D02*
X137477500Y-80073500D01*
X137223500Y-80073500D02*
X137414000Y-80073500D01*
X119888000Y-80073500D02*
X137223500Y-80073500D01*
X142049500Y-103251000D02*
X142303500Y-103251000D01*
X142049500Y-116459000D02*
X142049500Y-103251000D01*
X174053500Y-116459000D02*
X142049500Y-116459000D01*
X174053500Y-116205000D02*
X174053500Y-116459000D01*
X174053500Y-103251000D02*
X174053500Y-116205000D01*
X142049500Y-103251000D02*
X174053500Y-103251000D01*
X141668500Y-98996500D02*
X141668500Y-79438500D01*
X182308500Y-98996500D02*
X141668500Y-98996500D01*
X182308500Y-79438500D02*
X182308500Y-98996500D01*
X141668500Y-79438500D02*
X182308500Y-79438500D01*
M02*
